<mxfile host="app.diagrams.net" modified="2023-06-05T16:22:56.561Z" agent="Mozilla/5.0 (Macintosh; Intel Mac OS X 10_15_7) AppleWebKit/537.36 (KHTML, like Gecko) Chrome/113.0.0.0 Safari/537.36" etag="h01lqlD5iqBo-Al0Enx3" version="21.3.7" type="github" pages="4">
  <diagram name="หน้า-1" id="0dPJTQiDLHiC6yKrInrJ">
    <mxGraphModel dx="1740" dy="919" grid="1" gridSize="10" guides="1" tooltips="1" connect="1" arrows="1" fold="1" page="1" pageScale="1" pageWidth="827" pageHeight="1169" math="0" shadow="0">
      <root>
        <mxCell id="0" />
        <mxCell id="1" parent="0" />
        <mxCell id="LQeP0EJFbDXR1tohXI7s-1" value="เริ่ม" style="ellipse;whiteSpace=wrap;html=1;" vertex="1" parent="1">
          <mxGeometry x="212" y="130" width="80" height="40" as="geometry" />
        </mxCell>
        <mxCell id="LQeP0EJFbDXR1tohXI7s-2" value="ตรวจสอบสิทธิ์การใช้งาน" style="rounded=1;whiteSpace=wrap;html=1;" vertex="1" parent="1">
          <mxGeometry x="182" y="210" width="140" height="30" as="geometry" />
        </mxCell>
        <mxCell id="LQeP0EJFbDXR1tohXI7s-3" value="" style="edgeStyle=orthogonalEdgeStyle;rounded=0;orthogonalLoop=1;jettySize=auto;html=1;" edge="1" parent="1" source="LQeP0EJFbDXR1tohXI7s-1" target="LQeP0EJFbDXR1tohXI7s-2">
          <mxGeometry relative="1" as="geometry" />
        </mxCell>
        <mxCell id="LQeP0EJFbDXR1tohXI7s-4" value="มี ?" style="rhombus;whiteSpace=wrap;html=1;" vertex="1" parent="1">
          <mxGeometry x="222" y="270" width="60" height="60" as="geometry" />
        </mxCell>
        <mxCell id="LQeP0EJFbDXR1tohXI7s-5" value="" style="edgeStyle=orthogonalEdgeStyle;rounded=0;orthogonalLoop=1;jettySize=auto;html=1;" edge="1" parent="1" source="LQeP0EJFbDXR1tohXI7s-2" target="LQeP0EJFbDXR1tohXI7s-4">
          <mxGeometry relative="1" as="geometry" />
        </mxCell>
        <mxCell id="LQeP0EJFbDXR1tohXI7s-6" value="สิ้นสุด" style="ellipse;whiteSpace=wrap;html=1;" vertex="1" parent="1">
          <mxGeometry x="407" y="820" width="80" height="40" as="geometry" />
        </mxCell>
        <mxCell id="LQeP0EJFbDXR1tohXI7s-7" style="edgeStyle=orthogonalEdgeStyle;rounded=0;orthogonalLoop=1;jettySize=auto;html=1;entryX=0;entryY=0.5;entryDx=0;entryDy=0;" edge="1" parent="1" source="LQeP0EJFbDXR1tohXI7s-4" target="LQeP0EJFbDXR1tohXI7s-6">
          <mxGeometry relative="1" as="geometry">
            <Array as="points">
              <mxPoint x="252" y="840" />
            </Array>
          </mxGeometry>
        </mxCell>
        <mxCell id="LQeP0EJFbDXR1tohXI7s-8" value="ไม่" style="edgeLabel;html=1;align=center;verticalAlign=middle;resizable=0;points=[];" vertex="1" connectable="0" parent="LQeP0EJFbDXR1tohXI7s-7">
          <mxGeometry x="-0.8925" y="1" relative="1" as="geometry">
            <mxPoint as="offset" />
          </mxGeometry>
        </mxCell>
        <mxCell id="LQeP0EJFbDXR1tohXI7s-9" value="ตรวจสอบ Account &lt;br&gt;สถานะการใช้งาน" style="rounded=1;whiteSpace=wrap;html=1;" vertex="1" parent="1">
          <mxGeometry x="398.35" y="279" width="170" height="40" as="geometry" />
        </mxCell>
        <mxCell id="LQeP0EJFbDXR1tohXI7s-10" value="" style="edgeStyle=orthogonalEdgeStyle;rounded=0;orthogonalLoop=1;jettySize=auto;html=1;" edge="1" parent="1" source="LQeP0EJFbDXR1tohXI7s-4" target="LQeP0EJFbDXR1tohXI7s-9">
          <mxGeometry relative="1" as="geometry">
            <Array as="points">
              <mxPoint x="362" y="300" />
              <mxPoint x="362" y="300" />
            </Array>
          </mxGeometry>
        </mxCell>
        <mxCell id="LQeP0EJFbDXR1tohXI7s-11" value="ใช่" style="edgeLabel;html=1;align=center;verticalAlign=middle;resizable=0;points=[];" vertex="1" connectable="0" parent="LQeP0EJFbDXR1tohXI7s-10">
          <mxGeometry x="-0.7797" y="-1" relative="1" as="geometry">
            <mxPoint as="offset" />
          </mxGeometry>
        </mxCell>
        <mxCell id="LQeP0EJFbDXR1tohXI7s-12" value="มีใน&lt;br&gt;ระบบ &lt;br&gt;?" style="rhombus;whiteSpace=wrap;html=1;" vertex="1" parent="1">
          <mxGeometry x="445.85" y="358" width="75" height="70" as="geometry" />
        </mxCell>
        <mxCell id="LQeP0EJFbDXR1tohXI7s-13" value="" style="edgeStyle=orthogonalEdgeStyle;rounded=0;orthogonalLoop=1;jettySize=auto;html=1;" edge="1" parent="1" source="LQeP0EJFbDXR1tohXI7s-9" target="LQeP0EJFbDXR1tohXI7s-12">
          <mxGeometry relative="1" as="geometry" />
        </mxCell>
        <mxCell id="LQeP0EJFbDXR1tohXI7s-14" value="status&lt;br style=&quot;border-color: var(--border-color);&quot;&gt;= 1 ?" style="rhombus;whiteSpace=wrap;html=1;" vertex="1" parent="1">
          <mxGeometry x="453.35" y="478" width="60" height="60" as="geometry" />
        </mxCell>
        <mxCell id="LQeP0EJFbDXR1tohXI7s-15" value="" style="edgeStyle=orthogonalEdgeStyle;rounded=0;orthogonalLoop=1;jettySize=auto;html=1;" edge="1" parent="1" source="LQeP0EJFbDXR1tohXI7s-12" target="LQeP0EJFbDXR1tohXI7s-14">
          <mxGeometry relative="1" as="geometry" />
        </mxCell>
        <mxCell id="LQeP0EJFbDXR1tohXI7s-16" value="ใช่" style="edgeLabel;html=1;align=center;verticalAlign=middle;resizable=0;points=[];" vertex="1" connectable="0" parent="LQeP0EJFbDXR1tohXI7s-15">
          <mxGeometry x="-0.3254" y="2" relative="1" as="geometry">
            <mxPoint x="-2" as="offset" />
          </mxGeometry>
        </mxCell>
        <mxCell id="LQeP0EJFbDXR1tohXI7s-17" value="Locked&lt;br style=&quot;border-color: var(--border-color);&quot;&gt;= 1 ?&amp;nbsp;" style="rhombus;whiteSpace=wrap;html=1;" vertex="1" parent="1">
          <mxGeometry x="453.35" y="608" width="60" height="60" as="geometry" />
        </mxCell>
        <mxCell id="LQeP0EJFbDXR1tohXI7s-18" value="" style="edgeStyle=orthogonalEdgeStyle;rounded=0;orthogonalLoop=1;jettySize=auto;html=1;" edge="1" parent="1" source="LQeP0EJFbDXR1tohXI7s-14" target="LQeP0EJFbDXR1tohXI7s-17">
          <mxGeometry relative="1" as="geometry" />
        </mxCell>
        <mxCell id="LQeP0EJFbDXR1tohXI7s-19" value="ไม่" style="edgeLabel;html=1;align=center;verticalAlign=middle;resizable=0;points=[];" vertex="1" connectable="0" parent="LQeP0EJFbDXR1tohXI7s-18">
          <mxGeometry x="-0.3745" relative="1" as="geometry">
            <mxPoint as="offset" />
          </mxGeometry>
        </mxCell>
        <mxCell id="LQeP0EJFbDXR1tohXI7s-20" style="edgeStyle=orthogonalEdgeStyle;rounded=0;orthogonalLoop=1;jettySize=auto;html=1;entryX=0;entryY=0;entryDx=0;entryDy=0;" edge="1" parent="1" source="LQeP0EJFbDXR1tohXI7s-21" target="LQeP0EJFbDXR1tohXI7s-6">
          <mxGeometry relative="1" as="geometry">
            <Array as="points">
              <mxPoint x="390" y="820" />
              <mxPoint x="419" y="820" />
            </Array>
          </mxGeometry>
        </mxCell>
        <mxCell id="LQeP0EJFbDXR1tohXI7s-21" value="" style="ellipse;whiteSpace=wrap;html=1;aspect=fixed;" vertex="1" parent="1">
          <mxGeometry x="365.75" y="690" width="30" height="30" as="geometry" />
        </mxCell>
        <mxCell id="LQeP0EJFbDXR1tohXI7s-22" style="edgeStyle=orthogonalEdgeStyle;rounded=0;orthogonalLoop=1;jettySize=auto;html=1;" edge="1" parent="1" source="LQeP0EJFbDXR1tohXI7s-23" target="LQeP0EJFbDXR1tohXI7s-21">
          <mxGeometry relative="1" as="geometry">
            <Array as="points">
              <mxPoint x="282" y="393" />
              <mxPoint x="282" y="710" />
            </Array>
          </mxGeometry>
        </mxCell>
        <mxCell id="LQeP0EJFbDXR1tohXI7s-23" value="rerturn Error Code&amp;nbsp;001&lt;span style=&quot;font-size: medium; text-align: start;&quot;&gt;&lt;/span&gt;" style="rounded=1;whiteSpace=wrap;html=1;" vertex="1" parent="1">
          <mxGeometry x="292" y="373" width="77.5" height="40" as="geometry" />
        </mxCell>
        <mxCell id="LQeP0EJFbDXR1tohXI7s-24" style="edgeStyle=orthogonalEdgeStyle;rounded=0;orthogonalLoop=1;jettySize=auto;html=1;" edge="1" parent="1" source="LQeP0EJFbDXR1tohXI7s-12" target="LQeP0EJFbDXR1tohXI7s-23">
          <mxGeometry relative="1" as="geometry">
            <mxPoint x="382.1" y="498" as="targetPoint" />
          </mxGeometry>
        </mxCell>
        <mxCell id="LQeP0EJFbDXR1tohXI7s-25" value="ไม่" style="edgeLabel;html=1;align=center;verticalAlign=middle;resizable=0;points=[];" vertex="1" connectable="0" parent="LQeP0EJFbDXR1tohXI7s-24">
          <mxGeometry x="-0.6573" y="2" relative="1" as="geometry">
            <mxPoint as="offset" />
          </mxGeometry>
        </mxCell>
        <mxCell id="LQeP0EJFbDXR1tohXI7s-26" style="edgeStyle=orthogonalEdgeStyle;rounded=0;orthogonalLoop=1;jettySize=auto;html=1;entryX=0.5;entryY=0;entryDx=0;entryDy=0;" edge="1" parent="1" source="LQeP0EJFbDXR1tohXI7s-27" target="LQeP0EJFbDXR1tohXI7s-21">
          <mxGeometry relative="1" as="geometry" />
        </mxCell>
        <mxCell id="LQeP0EJFbDXR1tohXI7s-27" value="rerturn Error Code&amp;nbsp;011&lt;span style=&quot;font-size: medium; text-align: start;&quot;&gt;&lt;/span&gt;" style="rounded=1;whiteSpace=wrap;html=1;" vertex="1" parent="1">
          <mxGeometry x="342" y="618" width="77.5" height="40" as="geometry" />
        </mxCell>
        <mxCell id="LQeP0EJFbDXR1tohXI7s-28" value="" style="edgeStyle=orthogonalEdgeStyle;rounded=0;orthogonalLoop=1;jettySize=auto;html=1;" edge="1" parent="1" source="LQeP0EJFbDXR1tohXI7s-17" target="LQeP0EJFbDXR1tohXI7s-27">
          <mxGeometry relative="1" as="geometry" />
        </mxCell>
        <mxCell id="LQeP0EJFbDXR1tohXI7s-29" value="ใช่" style="edgeLabel;html=1;align=center;verticalAlign=middle;resizable=0;points=[];" vertex="1" connectable="0" parent="LQeP0EJFbDXR1tohXI7s-28">
          <mxGeometry x="-0.4608" y="1" relative="1" as="geometry">
            <mxPoint as="offset" />
          </mxGeometry>
        </mxCell>
        <mxCell id="LQeP0EJFbDXR1tohXI7s-30" style="edgeStyle=orthogonalEdgeStyle;rounded=0;orthogonalLoop=1;jettySize=auto;html=1;" edge="1" parent="1" source="LQeP0EJFbDXR1tohXI7s-31" target="LQeP0EJFbDXR1tohXI7s-21">
          <mxGeometry relative="1" as="geometry">
            <mxPoint x="382" y="700" as="targetPoint" />
            <Array as="points">
              <mxPoint x="322" y="508" />
              <mxPoint x="322" y="694" />
            </Array>
          </mxGeometry>
        </mxCell>
        <mxCell id="LQeP0EJFbDXR1tohXI7s-31" value="rerturn Error Code&amp;nbsp;004&lt;span style=&quot;font-size: medium; text-align: start;&quot;&gt;&lt;/span&gt;" style="rounded=1;whiteSpace=wrap;html=1;" vertex="1" parent="1">
          <mxGeometry x="342" y="488" width="77.5" height="40" as="geometry" />
        </mxCell>
        <mxCell id="LQeP0EJFbDXR1tohXI7s-32" value="" style="edgeStyle=orthogonalEdgeStyle;rounded=0;orthogonalLoop=1;jettySize=auto;html=1;" edge="1" parent="1" source="LQeP0EJFbDXR1tohXI7s-14" target="LQeP0EJFbDXR1tohXI7s-31">
          <mxGeometry relative="1" as="geometry" />
        </mxCell>
        <mxCell id="LQeP0EJFbDXR1tohXI7s-33" value="ใช่" style="edgeLabel;html=1;align=center;verticalAlign=middle;resizable=0;points=[];" vertex="1" connectable="0" parent="LQeP0EJFbDXR1tohXI7s-32">
          <mxGeometry x="-0.4608" y="2" relative="1" as="geometry">
            <mxPoint as="offset" />
          </mxGeometry>
        </mxCell>
        <mxCell id="LQeP0EJFbDXR1tohXI7s-35" value="" style="edgeStyle=orthogonalEdgeStyle;rounded=0;orthogonalLoop=1;jettySize=auto;html=1;" edge="1" parent="1" source="LQeP0EJFbDXR1tohXI7s-17" target="E4HfTKFzwUHxmwGbYoT0-6">
          <mxGeometry relative="1" as="geometry">
            <mxPoint x="640" y="270" as="targetPoint" />
            <Array as="points">
              <mxPoint x="530" y="638" />
              <mxPoint x="530" y="338" />
            </Array>
          </mxGeometry>
        </mxCell>
        <mxCell id="E4HfTKFzwUHxmwGbYoT0-7" value="" style="edgeStyle=orthogonalEdgeStyle;rounded=0;orthogonalLoop=1;jettySize=auto;html=1;" edge="1" parent="1" source="E4HfTKFzwUHxmwGbYoT0-6" target="E4HfTKFzwUHxmwGbYoT0-1">
          <mxGeometry relative="1" as="geometry" />
        </mxCell>
        <mxCell id="E4HfTKFzwUHxmwGbYoT0-6" value="ดึงข้อมูลบริษัททั้งหมด" style="rounded=1;whiteSpace=wrap;html=1;" vertex="1" parent="1">
          <mxGeometry x="660" y="318" width="77.5" height="40" as="geometry" />
        </mxCell>
        <mxCell id="E4HfTKFzwUHxmwGbYoT0-1" value="ตรวจสอบ Role ของ Account" style="rounded=1;whiteSpace=wrap;html=1;" vertex="1" parent="1">
          <mxGeometry x="660" y="400" width="77.5" height="40" as="geometry" />
        </mxCell>
        <mxCell id="E4HfTKFzwUHxmwGbYoT0-4" style="edgeStyle=orthogonalEdgeStyle;rounded=0;orthogonalLoop=1;jettySize=auto;html=1;entryX=0.5;entryY=0;entryDx=0;entryDy=0;exitX=0.048;exitY=0.513;exitDx=0;exitDy=0;exitPerimeter=0;" edge="1" parent="1" source="E4HfTKFzwUHxmwGbYoT0-20" target="E4HfTKFzwUHxmwGbYoT0-16">
          <mxGeometry relative="1" as="geometry">
            <mxPoint x="630" y="692" as="targetPoint" />
            <mxPoint x="658.75" y="520" as="sourcePoint" />
          </mxGeometry>
        </mxCell>
        <mxCell id="E4HfTKFzwUHxmwGbYoT0-17" value="ใช่" style="edgeLabel;html=1;align=center;verticalAlign=middle;resizable=0;points=[];" vertex="1" connectable="0" parent="E4HfTKFzwUHxmwGbYoT0-4">
          <mxGeometry x="-0.2717" relative="1" as="geometry">
            <mxPoint as="offset" />
          </mxGeometry>
        </mxCell>
        <mxCell id="E4HfTKFzwUHxmwGbYoT0-3" value="" style="edgeStyle=orthogonalEdgeStyle;rounded=0;orthogonalLoop=1;jettySize=auto;html=1;entryX=0.5;entryY=0;entryDx=0;entryDy=0;" edge="1" parent="1" source="E4HfTKFzwUHxmwGbYoT0-1" target="E4HfTKFzwUHxmwGbYoT0-20">
          <mxGeometry relative="1" as="geometry">
            <mxPoint x="698.8" y="480.04999999999995" as="targetPoint" />
          </mxGeometry>
        </mxCell>
        <mxCell id="E4HfTKFzwUHxmwGbYoT0-18" style="edgeStyle=orthogonalEdgeStyle;rounded=0;orthogonalLoop=1;jettySize=auto;html=1;entryX=1;entryY=0;entryDx=0;entryDy=0;" edge="1" parent="1" source="E4HfTKFzwUHxmwGbYoT0-16" target="LQeP0EJFbDXR1tohXI7s-6">
          <mxGeometry relative="1" as="geometry">
            <Array as="points">
              <mxPoint x="540" y="565" />
              <mxPoint x="540" y="680" />
              <mxPoint x="475" y="680" />
            </Array>
          </mxGeometry>
        </mxCell>
        <mxCell id="E4HfTKFzwUHxmwGbYoT0-16" value="ส่งกลับข้อมูลบริษัท" style="rounded=1;whiteSpace=wrap;html=1;" vertex="1" parent="1">
          <mxGeometry x="550" y="545" width="77.5" height="40" as="geometry" />
        </mxCell>
        <mxCell id="E4HfTKFzwUHxmwGbYoT0-23" value="" style="edgeStyle=orthogonalEdgeStyle;rounded=0;orthogonalLoop=1;jettySize=auto;html=1;" edge="1" parent="1" source="E4HfTKFzwUHxmwGbYoT0-20" target="E4HfTKFzwUHxmwGbYoT0-22">
          <mxGeometry relative="1" as="geometry" />
        </mxCell>
        <mxCell id="E4HfTKFzwUHxmwGbYoT0-40" value="ไม่" style="edgeLabel;html=1;align=center;verticalAlign=middle;resizable=0;points=[];" vertex="1" connectable="0" parent="E4HfTKFzwUHxmwGbYoT0-23">
          <mxGeometry x="0.2831" y="1" relative="1" as="geometry">
            <mxPoint as="offset" />
          </mxGeometry>
        </mxCell>
        <mxCell id="E4HfTKFzwUHxmwGbYoT0-20" value="Super&lt;br&gt;Admin ?" style="rhombus;whiteSpace=wrap;html=1;" vertex="1" parent="1">
          <mxGeometry x="661.25" y="485" width="75" height="70" as="geometry" />
        </mxCell>
        <mxCell id="E4HfTKFzwUHxmwGbYoT0-26" value="" style="edgeStyle=orthogonalEdgeStyle;rounded=0;orthogonalLoop=1;jettySize=auto;html=1;entryX=0.5;entryY=0;entryDx=0;entryDy=0;" edge="1" parent="1" source="E4HfTKFzwUHxmwGbYoT0-22" target="E4HfTKFzwUHxmwGbYoT0-25">
          <mxGeometry relative="1" as="geometry">
            <Array as="points">
              <mxPoint x="598" y="625" />
            </Array>
          </mxGeometry>
        </mxCell>
        <mxCell id="E4HfTKFzwUHxmwGbYoT0-41" value="ใช่" style="edgeLabel;html=1;align=center;verticalAlign=middle;resizable=0;points=[];" vertex="1" connectable="0" parent="E4HfTKFzwUHxmwGbYoT0-26">
          <mxGeometry x="-0.5238" y="1" relative="1" as="geometry">
            <mxPoint as="offset" />
          </mxGeometry>
        </mxCell>
        <mxCell id="E4HfTKFzwUHxmwGbYoT0-35" style="edgeStyle=orthogonalEdgeStyle;rounded=0;orthogonalLoop=1;jettySize=auto;html=1;" edge="1" parent="1" source="E4HfTKFzwUHxmwGbYoT0-22" target="E4HfTKFzwUHxmwGbYoT0-36">
          <mxGeometry relative="1" as="geometry">
            <mxPoint x="760" y="690" as="targetPoint" />
            <Array as="points">
              <mxPoint x="756" y="625" />
            </Array>
          </mxGeometry>
        </mxCell>
        <mxCell id="E4HfTKFzwUHxmwGbYoT0-22" value="Admin" style="rhombus;whiteSpace=wrap;html=1;" vertex="1" parent="1">
          <mxGeometry x="658.75" y="585" width="80" height="80" as="geometry" />
        </mxCell>
        <mxCell id="E4HfTKFzwUHxmwGbYoT0-30" style="edgeStyle=orthogonalEdgeStyle;rounded=0;orthogonalLoop=1;jettySize=auto;html=1;entryX=0.555;entryY=0;entryDx=0;entryDy=0;entryPerimeter=0;" edge="1" parent="1" source="E4HfTKFzwUHxmwGbYoT0-25" target="E4HfTKFzwUHxmwGbYoT0-29">
          <mxGeometry relative="1" as="geometry">
            <Array as="points">
              <mxPoint x="530" y="705" />
            </Array>
          </mxGeometry>
        </mxCell>
        <mxCell id="E4HfTKFzwUHxmwGbYoT0-42" value="ไม่" style="edgeLabel;html=1;align=center;verticalAlign=middle;resizable=0;points=[];" vertex="1" connectable="0" parent="E4HfTKFzwUHxmwGbYoT0-30">
          <mxGeometry x="-0.4384" y="-1" relative="1" as="geometry">
            <mxPoint as="offset" />
          </mxGeometry>
        </mxCell>
        <mxCell id="E4HfTKFzwUHxmwGbYoT0-33" style="edgeStyle=orthogonalEdgeStyle;rounded=0;orthogonalLoop=1;jettySize=auto;html=1;entryX=0.5;entryY=0;entryDx=0;entryDy=0;" edge="1" parent="1" source="E4HfTKFzwUHxmwGbYoT0-25" target="E4HfTKFzwUHxmwGbYoT0-32">
          <mxGeometry relative="1" as="geometry">
            <Array as="points">
              <mxPoint x="649" y="705" />
            </Array>
          </mxGeometry>
        </mxCell>
        <mxCell id="E4HfTKFzwUHxmwGbYoT0-43" value="ใช่" style="edgeLabel;html=1;align=center;verticalAlign=middle;resizable=0;points=[];" vertex="1" connectable="0" parent="E4HfTKFzwUHxmwGbYoT0-33">
          <mxGeometry x="0.1092" relative="1" as="geometry">
            <mxPoint as="offset" />
          </mxGeometry>
        </mxCell>
        <mxCell id="E4HfTKFzwUHxmwGbYoT0-25" value="Company&lt;br&gt;Map &amp;gt; 0" style="rhombus;whiteSpace=wrap;html=1;" vertex="1" parent="1">
          <mxGeometry x="562.35" y="670" width="71.65" height="70" as="geometry" />
        </mxCell>
        <mxCell id="E4HfTKFzwUHxmwGbYoT0-31" style="edgeStyle=orthogonalEdgeStyle;rounded=0;orthogonalLoop=1;jettySize=auto;html=1;entryX=1.001;entryY=0.566;entryDx=0;entryDy=0;entryPerimeter=0;" edge="1" parent="1" source="E4HfTKFzwUHxmwGbYoT0-29" target="LQeP0EJFbDXR1tohXI7s-6">
          <mxGeometry relative="1" as="geometry" />
        </mxCell>
        <mxCell id="E4HfTKFzwUHxmwGbYoT0-29" value="rerturn Error Code&amp;nbsp;002&lt;span style=&quot;font-size: medium; text-align: start;&quot;&gt;&lt;/span&gt;" style="rounded=1;whiteSpace=wrap;html=1;" vertex="1" parent="1">
          <mxGeometry x="487" y="740" width="77.5" height="40" as="geometry" />
        </mxCell>
        <mxCell id="E4HfTKFzwUHxmwGbYoT0-34" style="edgeStyle=orthogonalEdgeStyle;rounded=0;orthogonalLoop=1;jettySize=auto;html=1;entryX=1;entryY=1;entryDx=0;entryDy=0;" edge="1" parent="1" source="E4HfTKFzwUHxmwGbYoT0-32" target="LQeP0EJFbDXR1tohXI7s-6">
          <mxGeometry relative="1" as="geometry">
            <Array as="points">
              <mxPoint x="649" y="854" />
            </Array>
          </mxGeometry>
        </mxCell>
        <mxCell id="E4HfTKFzwUHxmwGbYoT0-32" value="ส่งกลับข้อมูลบริษัท" style="rounded=1;whiteSpace=wrap;html=1;" vertex="1" parent="1">
          <mxGeometry x="610" y="740" width="77.5" height="40" as="geometry" />
        </mxCell>
        <mxCell id="E4HfTKFzwUHxmwGbYoT0-38" value="ไม่" style="edgeStyle=orthogonalEdgeStyle;rounded=0;orthogonalLoop=1;jettySize=auto;html=1;" edge="1" parent="1" source="E4HfTKFzwUHxmwGbYoT0-36" target="E4HfTKFzwUHxmwGbYoT0-39">
          <mxGeometry relative="1" as="geometry">
            <mxPoint x="700" y="810" as="targetPoint" />
            <Array as="points">
              <mxPoint x="700" y="725" />
            </Array>
          </mxGeometry>
        </mxCell>
        <mxCell id="E4HfTKFzwUHxmwGbYoT0-46" style="edgeStyle=orthogonalEdgeStyle;rounded=0;orthogonalLoop=1;jettySize=auto;html=1;entryX=0.5;entryY=0;entryDx=0;entryDy=0;" edge="1" parent="1" source="E4HfTKFzwUHxmwGbYoT0-36" target="E4HfTKFzwUHxmwGbYoT0-45">
          <mxGeometry relative="1" as="geometry" />
        </mxCell>
        <mxCell id="E4HfTKFzwUHxmwGbYoT0-36" value="Company&lt;br&gt;Map == 1" style="rhombus;whiteSpace=wrap;html=1;" vertex="1" parent="1">
          <mxGeometry x="720" y="690" width="71.65" height="70" as="geometry" />
        </mxCell>
        <mxCell id="E4HfTKFzwUHxmwGbYoT0-44" style="edgeStyle=orthogonalEdgeStyle;rounded=0;orthogonalLoop=1;jettySize=auto;html=1;entryX=0.669;entryY=1;entryDx=0;entryDy=0;entryPerimeter=0;" edge="1" parent="1" source="E4HfTKFzwUHxmwGbYoT0-39" target="LQeP0EJFbDXR1tohXI7s-6">
          <mxGeometry relative="1" as="geometry">
            <Array as="points">
              <mxPoint x="700" y="880" />
              <mxPoint x="461" y="880" />
            </Array>
          </mxGeometry>
        </mxCell>
        <mxCell id="E4HfTKFzwUHxmwGbYoT0-39" value="rerturn Error Code&amp;nbsp;002&lt;span style=&quot;font-size: medium; text-align: start;&quot;&gt;&lt;/span&gt;" style="rounded=1;whiteSpace=wrap;html=1;" vertex="1" parent="1">
          <mxGeometry x="661.25" y="800" width="77.5" height="40" as="geometry" />
        </mxCell>
        <mxCell id="E4HfTKFzwUHxmwGbYoT0-47" style="edgeStyle=orthogonalEdgeStyle;rounded=0;orthogonalLoop=1;jettySize=auto;html=1;entryX=0.398;entryY=0.989;entryDx=0;entryDy=0;entryPerimeter=0;" edge="1" parent="1" source="E4HfTKFzwUHxmwGbYoT0-45" target="LQeP0EJFbDXR1tohXI7s-6">
          <mxGeometry relative="1" as="geometry">
            <Array as="points">
              <mxPoint x="783" y="890" />
              <mxPoint x="439" y="890" />
            </Array>
          </mxGeometry>
        </mxCell>
        <mxCell id="E4HfTKFzwUHxmwGbYoT0-45" value="ส่งกลับข้อมูลบริษัท" style="rounded=1;whiteSpace=wrap;html=1;" vertex="1" parent="1">
          <mxGeometry x="750" y="800" width="66.25" height="40" as="geometry" />
        </mxCell>
      </root>
    </mxGraphModel>
  </diagram>
  <diagram id="MjCxfaU8dUM9c-Li5xkt" name="หน้า-2">
    <mxGraphModel dx="1664" dy="879" grid="1" gridSize="10" guides="1" tooltips="1" connect="1" arrows="1" fold="1" page="1" pageScale="1" pageWidth="827" pageHeight="1169" math="0" shadow="0">
      <root>
        <mxCell id="0" />
        <mxCell id="1" parent="0" />
        <mxCell id="hYmHX3uaaJ9YyjQHqj_0-1" value="เริ่ม" style="ellipse;whiteSpace=wrap;html=1;" vertex="1" parent="1">
          <mxGeometry x="65.75" y="60" width="80" height="40" as="geometry" />
        </mxCell>
        <mxCell id="hYmHX3uaaJ9YyjQHqj_0-2" value="ตรวจสอบสิทธิ์การใช้งาน" style="rounded=1;whiteSpace=wrap;html=1;" vertex="1" parent="1">
          <mxGeometry x="35.75" y="140" width="140" height="30" as="geometry" />
        </mxCell>
        <mxCell id="hYmHX3uaaJ9YyjQHqj_0-3" value="" style="edgeStyle=orthogonalEdgeStyle;rounded=0;orthogonalLoop=1;jettySize=auto;html=1;" edge="1" parent="1" source="hYmHX3uaaJ9YyjQHqj_0-1" target="hYmHX3uaaJ9YyjQHqj_0-2">
          <mxGeometry relative="1" as="geometry" />
        </mxCell>
        <mxCell id="hYmHX3uaaJ9YyjQHqj_0-4" value="มี ?" style="rhombus;whiteSpace=wrap;html=1;" vertex="1" parent="1">
          <mxGeometry x="75.75" y="200" width="60" height="60" as="geometry" />
        </mxCell>
        <mxCell id="hYmHX3uaaJ9YyjQHqj_0-5" value="" style="edgeStyle=orthogonalEdgeStyle;rounded=0;orthogonalLoop=1;jettySize=auto;html=1;" edge="1" parent="1" source="hYmHX3uaaJ9YyjQHqj_0-2" target="hYmHX3uaaJ9YyjQHqj_0-4">
          <mxGeometry relative="1" as="geometry" />
        </mxCell>
        <mxCell id="hYmHX3uaaJ9YyjQHqj_0-6" value="สิ้นสุด" style="ellipse;whiteSpace=wrap;html=1;" vertex="1" parent="1">
          <mxGeometry x="260.75" y="750" width="80" height="40" as="geometry" />
        </mxCell>
        <mxCell id="hYmHX3uaaJ9YyjQHqj_0-7" style="edgeStyle=orthogonalEdgeStyle;rounded=0;orthogonalLoop=1;jettySize=auto;html=1;entryX=0;entryY=0.5;entryDx=0;entryDy=0;" edge="1" parent="1" source="hYmHX3uaaJ9YyjQHqj_0-4" target="hYmHX3uaaJ9YyjQHqj_0-6">
          <mxGeometry relative="1" as="geometry">
            <Array as="points">
              <mxPoint x="105.75" y="770" />
            </Array>
          </mxGeometry>
        </mxCell>
        <mxCell id="hYmHX3uaaJ9YyjQHqj_0-8" value="ไม่" style="edgeLabel;html=1;align=center;verticalAlign=middle;resizable=0;points=[];" vertex="1" connectable="0" parent="hYmHX3uaaJ9YyjQHqj_0-7">
          <mxGeometry x="-0.8925" y="1" relative="1" as="geometry">
            <mxPoint as="offset" />
          </mxGeometry>
        </mxCell>
        <mxCell id="hYmHX3uaaJ9YyjQHqj_0-9" value="ตรวจสอบ Account &lt;br&gt;สถานะการใช้งาน" style="rounded=1;whiteSpace=wrap;html=1;" vertex="1" parent="1">
          <mxGeometry x="252.10000000000002" y="209" width="170" height="40" as="geometry" />
        </mxCell>
        <mxCell id="hYmHX3uaaJ9YyjQHqj_0-10" value="" style="edgeStyle=orthogonalEdgeStyle;rounded=0;orthogonalLoop=1;jettySize=auto;html=1;" edge="1" parent="1" source="hYmHX3uaaJ9YyjQHqj_0-4" target="hYmHX3uaaJ9YyjQHqj_0-9">
          <mxGeometry relative="1" as="geometry">
            <Array as="points">
              <mxPoint x="215.75" y="230" />
              <mxPoint x="215.75" y="230" />
            </Array>
          </mxGeometry>
        </mxCell>
        <mxCell id="hYmHX3uaaJ9YyjQHqj_0-11" value="ใช่" style="edgeLabel;html=1;align=center;verticalAlign=middle;resizable=0;points=[];" vertex="1" connectable="0" parent="hYmHX3uaaJ9YyjQHqj_0-10">
          <mxGeometry x="-0.7797" y="-1" relative="1" as="geometry">
            <mxPoint as="offset" />
          </mxGeometry>
        </mxCell>
        <mxCell id="hYmHX3uaaJ9YyjQHqj_0-12" value="มีใน&lt;br&gt;ระบบ &lt;br&gt;?" style="rhombus;whiteSpace=wrap;html=1;" vertex="1" parent="1">
          <mxGeometry x="299.6" y="288" width="75" height="70" as="geometry" />
        </mxCell>
        <mxCell id="hYmHX3uaaJ9YyjQHqj_0-13" value="" style="edgeStyle=orthogonalEdgeStyle;rounded=0;orthogonalLoop=1;jettySize=auto;html=1;" edge="1" parent="1" source="hYmHX3uaaJ9YyjQHqj_0-9" target="hYmHX3uaaJ9YyjQHqj_0-12">
          <mxGeometry relative="1" as="geometry" />
        </mxCell>
        <mxCell id="hYmHX3uaaJ9YyjQHqj_0-14" value="status&lt;br style=&quot;border-color: var(--border-color);&quot;&gt;= 1 ?" style="rhombus;whiteSpace=wrap;html=1;" vertex="1" parent="1">
          <mxGeometry x="307.1" y="408" width="60" height="60" as="geometry" />
        </mxCell>
        <mxCell id="hYmHX3uaaJ9YyjQHqj_0-15" value="" style="edgeStyle=orthogonalEdgeStyle;rounded=0;orthogonalLoop=1;jettySize=auto;html=1;" edge="1" parent="1" source="hYmHX3uaaJ9YyjQHqj_0-12" target="hYmHX3uaaJ9YyjQHqj_0-14">
          <mxGeometry relative="1" as="geometry" />
        </mxCell>
        <mxCell id="hYmHX3uaaJ9YyjQHqj_0-16" value="ใช่" style="edgeLabel;html=1;align=center;verticalAlign=middle;resizable=0;points=[];" vertex="1" connectable="0" parent="hYmHX3uaaJ9YyjQHqj_0-15">
          <mxGeometry x="-0.3254" y="2" relative="1" as="geometry">
            <mxPoint x="-2" as="offset" />
          </mxGeometry>
        </mxCell>
        <mxCell id="hYmHX3uaaJ9YyjQHqj_0-17" value="Locked&lt;br style=&quot;border-color: var(--border-color);&quot;&gt;= 1 ?&amp;nbsp;" style="rhombus;whiteSpace=wrap;html=1;" vertex="1" parent="1">
          <mxGeometry x="307.1" y="538" width="60" height="60" as="geometry" />
        </mxCell>
        <mxCell id="hYmHX3uaaJ9YyjQHqj_0-18" value="" style="edgeStyle=orthogonalEdgeStyle;rounded=0;orthogonalLoop=1;jettySize=auto;html=1;" edge="1" parent="1" source="hYmHX3uaaJ9YyjQHqj_0-14" target="hYmHX3uaaJ9YyjQHqj_0-17">
          <mxGeometry relative="1" as="geometry" />
        </mxCell>
        <mxCell id="hYmHX3uaaJ9YyjQHqj_0-19" value="ไม่" style="edgeLabel;html=1;align=center;verticalAlign=middle;resizable=0;points=[];" vertex="1" connectable="0" parent="hYmHX3uaaJ9YyjQHqj_0-18">
          <mxGeometry x="-0.3745" relative="1" as="geometry">
            <mxPoint as="offset" />
          </mxGeometry>
        </mxCell>
        <mxCell id="hYmHX3uaaJ9YyjQHqj_0-20" style="edgeStyle=orthogonalEdgeStyle;rounded=0;orthogonalLoop=1;jettySize=auto;html=1;entryX=0;entryY=0;entryDx=0;entryDy=0;" edge="1" parent="1" source="hYmHX3uaaJ9YyjQHqj_0-21" target="hYmHX3uaaJ9YyjQHqj_0-6">
          <mxGeometry relative="1" as="geometry">
            <Array as="points">
              <mxPoint x="243.75" y="750" />
              <mxPoint x="272.75" y="750" />
            </Array>
          </mxGeometry>
        </mxCell>
        <mxCell id="hYmHX3uaaJ9YyjQHqj_0-21" value="" style="ellipse;whiteSpace=wrap;html=1;aspect=fixed;" vertex="1" parent="1">
          <mxGeometry x="219.5" y="620" width="30" height="30" as="geometry" />
        </mxCell>
        <mxCell id="hYmHX3uaaJ9YyjQHqj_0-22" style="edgeStyle=orthogonalEdgeStyle;rounded=0;orthogonalLoop=1;jettySize=auto;html=1;" edge="1" parent="1" source="hYmHX3uaaJ9YyjQHqj_0-23" target="hYmHX3uaaJ9YyjQHqj_0-21">
          <mxGeometry relative="1" as="geometry">
            <Array as="points">
              <mxPoint x="135.75" y="323" />
              <mxPoint x="135.75" y="640" />
            </Array>
          </mxGeometry>
        </mxCell>
        <mxCell id="hYmHX3uaaJ9YyjQHqj_0-23" value="rerturn Error Code&amp;nbsp;001&lt;span style=&quot;font-size: medium; text-align: start;&quot;&gt;&lt;/span&gt;" style="rounded=1;whiteSpace=wrap;html=1;" vertex="1" parent="1">
          <mxGeometry x="145.75" y="303" width="77.5" height="40" as="geometry" />
        </mxCell>
        <mxCell id="hYmHX3uaaJ9YyjQHqj_0-24" style="edgeStyle=orthogonalEdgeStyle;rounded=0;orthogonalLoop=1;jettySize=auto;html=1;" edge="1" parent="1" source="hYmHX3uaaJ9YyjQHqj_0-12" target="hYmHX3uaaJ9YyjQHqj_0-23">
          <mxGeometry relative="1" as="geometry">
            <mxPoint x="235.85000000000002" y="428" as="targetPoint" />
          </mxGeometry>
        </mxCell>
        <mxCell id="hYmHX3uaaJ9YyjQHqj_0-25" value="ไม่" style="edgeLabel;html=1;align=center;verticalAlign=middle;resizable=0;points=[];" vertex="1" connectable="0" parent="hYmHX3uaaJ9YyjQHqj_0-24">
          <mxGeometry x="-0.6573" y="2" relative="1" as="geometry">
            <mxPoint as="offset" />
          </mxGeometry>
        </mxCell>
        <mxCell id="hYmHX3uaaJ9YyjQHqj_0-26" style="edgeStyle=orthogonalEdgeStyle;rounded=0;orthogonalLoop=1;jettySize=auto;html=1;entryX=0.5;entryY=0;entryDx=0;entryDy=0;" edge="1" parent="1" source="hYmHX3uaaJ9YyjQHqj_0-27" target="hYmHX3uaaJ9YyjQHqj_0-21">
          <mxGeometry relative="1" as="geometry" />
        </mxCell>
        <mxCell id="hYmHX3uaaJ9YyjQHqj_0-27" value="rerturn Error Code&amp;nbsp;011&lt;span style=&quot;font-size: medium; text-align: start;&quot;&gt;&lt;/span&gt;" style="rounded=1;whiteSpace=wrap;html=1;" vertex="1" parent="1">
          <mxGeometry x="195.75" y="548" width="77.5" height="40" as="geometry" />
        </mxCell>
        <mxCell id="hYmHX3uaaJ9YyjQHqj_0-28" value="" style="edgeStyle=orthogonalEdgeStyle;rounded=0;orthogonalLoop=1;jettySize=auto;html=1;" edge="1" parent="1" source="hYmHX3uaaJ9YyjQHqj_0-17" target="hYmHX3uaaJ9YyjQHqj_0-27">
          <mxGeometry relative="1" as="geometry" />
        </mxCell>
        <mxCell id="hYmHX3uaaJ9YyjQHqj_0-29" value="ใช่" style="edgeLabel;html=1;align=center;verticalAlign=middle;resizable=0;points=[];" vertex="1" connectable="0" parent="hYmHX3uaaJ9YyjQHqj_0-28">
          <mxGeometry x="-0.4608" y="1" relative="1" as="geometry">
            <mxPoint as="offset" />
          </mxGeometry>
        </mxCell>
        <mxCell id="hYmHX3uaaJ9YyjQHqj_0-30" style="edgeStyle=orthogonalEdgeStyle;rounded=0;orthogonalLoop=1;jettySize=auto;html=1;" edge="1" parent="1" source="hYmHX3uaaJ9YyjQHqj_0-31" target="hYmHX3uaaJ9YyjQHqj_0-21">
          <mxGeometry relative="1" as="geometry">
            <mxPoint x="235.75" y="630" as="targetPoint" />
            <Array as="points">
              <mxPoint x="175.75" y="438" />
              <mxPoint x="175.75" y="624" />
            </Array>
          </mxGeometry>
        </mxCell>
        <mxCell id="hYmHX3uaaJ9YyjQHqj_0-31" value="rerturn Error Code&amp;nbsp;004&lt;span style=&quot;font-size: medium; text-align: start;&quot;&gt;&lt;/span&gt;" style="rounded=1;whiteSpace=wrap;html=1;" vertex="1" parent="1">
          <mxGeometry x="195.75" y="418" width="77.5" height="40" as="geometry" />
        </mxCell>
        <mxCell id="hYmHX3uaaJ9YyjQHqj_0-32" value="" style="edgeStyle=orthogonalEdgeStyle;rounded=0;orthogonalLoop=1;jettySize=auto;html=1;" edge="1" parent="1" source="hYmHX3uaaJ9YyjQHqj_0-14" target="hYmHX3uaaJ9YyjQHqj_0-31">
          <mxGeometry relative="1" as="geometry" />
        </mxCell>
        <mxCell id="hYmHX3uaaJ9YyjQHqj_0-33" value="ใช่" style="edgeLabel;html=1;align=center;verticalAlign=middle;resizable=0;points=[];" vertex="1" connectable="0" parent="hYmHX3uaaJ9YyjQHqj_0-32">
          <mxGeometry x="-0.4608" y="2" relative="1" as="geometry">
            <mxPoint as="offset" />
          </mxGeometry>
        </mxCell>
        <mxCell id="hYmHX3uaaJ9YyjQHqj_0-34" value="" style="edgeStyle=orthogonalEdgeStyle;rounded=0;orthogonalLoop=1;jettySize=auto;html=1;" edge="1" parent="1" source="hYmHX3uaaJ9YyjQHqj_0-17" target="hYmHX3uaaJ9YyjQHqj_0-36">
          <mxGeometry relative="1" as="geometry">
            <mxPoint x="493.75" y="200" as="targetPoint" />
            <Array as="points">
              <mxPoint x="383.75" y="568" />
              <mxPoint x="383.75" y="268" />
            </Array>
          </mxGeometry>
        </mxCell>
        <mxCell id="hYmHX3uaaJ9YyjQHqj_0-71" style="edgeStyle=orthogonalEdgeStyle;rounded=0;orthogonalLoop=1;jettySize=auto;html=1;" edge="1" parent="1" source="hYmHX3uaaJ9YyjQHqj_0-36" target="hYmHX3uaaJ9YyjQHqj_0-70">
          <mxGeometry relative="1" as="geometry">
            <Array as="points" />
          </mxGeometry>
        </mxCell>
        <mxCell id="hYmHX3uaaJ9YyjQHqj_0-36" value="ดึงข้อมูลบริษัทด้วย companyId" style="rounded=1;whiteSpace=wrap;html=1;" vertex="1" parent="1">
          <mxGeometry x="463.75" y="209" width="77.5" height="40" as="geometry" />
        </mxCell>
        <mxCell id="hYmHX3uaaJ9YyjQHqj_0-37" value="ตรวจสอบ Role ของ Account" style="rounded=1;whiteSpace=wrap;html=1;" vertex="1" parent="1">
          <mxGeometry x="513.75" y="330" width="77.5" height="40" as="geometry" />
        </mxCell>
        <mxCell id="hYmHX3uaaJ9YyjQHqj_0-40" value="" style="edgeStyle=orthogonalEdgeStyle;rounded=0;orthogonalLoop=1;jettySize=auto;html=1;entryX=0.5;entryY=0;entryDx=0;entryDy=0;" edge="1" parent="1" source="hYmHX3uaaJ9YyjQHqj_0-37" target="hYmHX3uaaJ9YyjQHqj_0-45">
          <mxGeometry relative="1" as="geometry">
            <mxPoint x="552.55" y="410.04999999999995" as="targetPoint" />
          </mxGeometry>
        </mxCell>
        <mxCell id="hYmHX3uaaJ9YyjQHqj_0-41" style="edgeStyle=orthogonalEdgeStyle;rounded=0;orthogonalLoop=1;jettySize=auto;html=1;entryX=1;entryY=0;entryDx=0;entryDy=0;" edge="1" parent="1" source="hYmHX3uaaJ9YyjQHqj_0-42" target="hYmHX3uaaJ9YyjQHqj_0-6">
          <mxGeometry relative="1" as="geometry">
            <Array as="points">
              <mxPoint x="393.75" y="495" />
              <mxPoint x="393.75" y="610" />
              <mxPoint x="328.75" y="610" />
            </Array>
          </mxGeometry>
        </mxCell>
        <mxCell id="hYmHX3uaaJ9YyjQHqj_0-42" value="ส่งกลับข้อมูลบริษัท" style="rounded=1;whiteSpace=wrap;html=1;" vertex="1" parent="1">
          <mxGeometry x="403.75" y="475" width="77.5" height="40" as="geometry" />
        </mxCell>
        <mxCell id="hYmHX3uaaJ9YyjQHqj_0-76" value="" style="edgeStyle=orthogonalEdgeStyle;rounded=0;orthogonalLoop=1;jettySize=auto;html=1;" edge="1" parent="1" source="hYmHX3uaaJ9YyjQHqj_0-45" target="hYmHX3uaaJ9YyjQHqj_0-74">
          <mxGeometry relative="1" as="geometry" />
        </mxCell>
        <mxCell id="hYmHX3uaaJ9YyjQHqj_0-77" value="ไม่" style="edgeLabel;html=1;align=center;verticalAlign=middle;resizable=0;points=[];" vertex="1" connectable="0" parent="hYmHX3uaaJ9YyjQHqj_0-76">
          <mxGeometry x="-0.0381" relative="1" as="geometry">
            <mxPoint as="offset" />
          </mxGeometry>
        </mxCell>
        <mxCell id="hYmHX3uaaJ9YyjQHqj_0-45" value="Super&lt;br&gt;Admin ?" style="rhombus;whiteSpace=wrap;html=1;" vertex="1" parent="1">
          <mxGeometry x="515" y="415" width="75" height="70" as="geometry" />
        </mxCell>
        <mxCell id="hYmHX3uaaJ9YyjQHqj_0-38" style="edgeStyle=orthogonalEdgeStyle;rounded=0;orthogonalLoop=1;jettySize=auto;html=1;entryX=0.5;entryY=0;entryDx=0;entryDy=0;exitX=0.048;exitY=0.513;exitDx=0;exitDy=0;exitPerimeter=0;" edge="1" parent="1" source="hYmHX3uaaJ9YyjQHqj_0-45" target="hYmHX3uaaJ9YyjQHqj_0-42">
          <mxGeometry relative="1" as="geometry">
            <mxPoint x="483.75" y="622" as="targetPoint" />
            <mxPoint x="512.5" y="450" as="sourcePoint" />
          </mxGeometry>
        </mxCell>
        <mxCell id="hYmHX3uaaJ9YyjQHqj_0-39" value="ใช่" style="edgeLabel;html=1;align=center;verticalAlign=middle;resizable=0;points=[];" vertex="1" connectable="0" parent="hYmHX3uaaJ9YyjQHqj_0-38">
          <mxGeometry x="-0.2717" relative="1" as="geometry">
            <mxPoint as="offset" />
          </mxGeometry>
        </mxCell>
        <mxCell id="hYmHX3uaaJ9YyjQHqj_0-54" value="Company&lt;br&gt;Map &amp;gt; 0" style="rhombus;whiteSpace=wrap;html=1;" vertex="1" parent="1">
          <mxGeometry x="416.1" y="600" width="71.65" height="70" as="geometry" />
        </mxCell>
        <mxCell id="hYmHX3uaaJ9YyjQHqj_0-46" value="" style="edgeStyle=orthogonalEdgeStyle;rounded=0;orthogonalLoop=1;jettySize=auto;html=1;entryX=0.5;entryY=0;entryDx=0;entryDy=0;" edge="1" parent="1" target="hYmHX3uaaJ9YyjQHqj_0-54">
          <mxGeometry relative="1" as="geometry">
            <Array as="points">
              <mxPoint x="451.75" y="555" />
            </Array>
            <mxPoint x="512.5322580645161" y="555.0322580645161" as="sourcePoint" />
          </mxGeometry>
        </mxCell>
        <mxCell id="hYmHX3uaaJ9YyjQHqj_0-55" style="edgeStyle=orthogonalEdgeStyle;rounded=0;orthogonalLoop=1;jettySize=auto;html=1;entryX=1.001;entryY=0.566;entryDx=0;entryDy=0;entryPerimeter=0;" edge="1" parent="1" source="hYmHX3uaaJ9YyjQHqj_0-56" target="hYmHX3uaaJ9YyjQHqj_0-6">
          <mxGeometry relative="1" as="geometry" />
        </mxCell>
        <mxCell id="hYmHX3uaaJ9YyjQHqj_0-56" value="rerturn Error Code&amp;nbsp;002&lt;span style=&quot;font-size: medium; text-align: start;&quot;&gt;&lt;/span&gt;" style="rounded=1;whiteSpace=wrap;html=1;" vertex="1" parent="1">
          <mxGeometry x="340.75" y="670" width="77.5" height="40" as="geometry" />
        </mxCell>
        <mxCell id="hYmHX3uaaJ9YyjQHqj_0-50" style="edgeStyle=orthogonalEdgeStyle;rounded=0;orthogonalLoop=1;jettySize=auto;html=1;entryX=0.555;entryY=0;entryDx=0;entryDy=0;entryPerimeter=0;" edge="1" parent="1" source="hYmHX3uaaJ9YyjQHqj_0-54" target="hYmHX3uaaJ9YyjQHqj_0-56">
          <mxGeometry relative="1" as="geometry">
            <Array as="points">
              <mxPoint x="383.75" y="635" />
            </Array>
          </mxGeometry>
        </mxCell>
        <mxCell id="hYmHX3uaaJ9YyjQHqj_0-51" value="ไม่" style="edgeLabel;html=1;align=center;verticalAlign=middle;resizable=0;points=[];" vertex="1" connectable="0" parent="hYmHX3uaaJ9YyjQHqj_0-50">
          <mxGeometry x="-0.4384" y="-1" relative="1" as="geometry">
            <mxPoint as="offset" />
          </mxGeometry>
        </mxCell>
        <mxCell id="hYmHX3uaaJ9YyjQHqj_0-57" style="edgeStyle=orthogonalEdgeStyle;rounded=0;orthogonalLoop=1;jettySize=auto;html=1;entryX=1;entryY=1;entryDx=0;entryDy=0;" edge="1" parent="1" source="hYmHX3uaaJ9YyjQHqj_0-58" target="hYmHX3uaaJ9YyjQHqj_0-6">
          <mxGeometry relative="1" as="geometry">
            <Array as="points">
              <mxPoint x="502.75" y="784" />
            </Array>
          </mxGeometry>
        </mxCell>
        <mxCell id="hYmHX3uaaJ9YyjQHqj_0-58" value="ส่งกลับข้อมูลบริษัท" style="rounded=1;whiteSpace=wrap;html=1;" vertex="1" parent="1">
          <mxGeometry x="463.75" y="670" width="77.5" height="40" as="geometry" />
        </mxCell>
        <mxCell id="hYmHX3uaaJ9YyjQHqj_0-52" style="edgeStyle=orthogonalEdgeStyle;rounded=0;orthogonalLoop=1;jettySize=auto;html=1;entryX=0.5;entryY=0;entryDx=0;entryDy=0;" edge="1" parent="1" source="hYmHX3uaaJ9YyjQHqj_0-54" target="hYmHX3uaaJ9YyjQHqj_0-58">
          <mxGeometry relative="1" as="geometry">
            <Array as="points">
              <mxPoint x="502.75" y="635" />
            </Array>
          </mxGeometry>
        </mxCell>
        <mxCell id="hYmHX3uaaJ9YyjQHqj_0-53" value="ใช่" style="edgeLabel;html=1;align=center;verticalAlign=middle;resizable=0;points=[];" vertex="1" connectable="0" parent="hYmHX3uaaJ9YyjQHqj_0-52">
          <mxGeometry x="0.1092" relative="1" as="geometry">
            <mxPoint as="offset" />
          </mxGeometry>
        </mxCell>
        <mxCell id="hYmHX3uaaJ9YyjQHqj_0-72" style="edgeStyle=orthogonalEdgeStyle;rounded=0;orthogonalLoop=1;jettySize=auto;html=1;" edge="1" parent="1" source="hYmHX3uaaJ9YyjQHqj_0-70" target="hYmHX3uaaJ9YyjQHqj_0-37">
          <mxGeometry relative="1" as="geometry">
            <Array as="points">
              <mxPoint x="633" y="280" />
              <mxPoint x="553" y="280" />
            </Array>
          </mxGeometry>
        </mxCell>
        <mxCell id="hYmHX3uaaJ9YyjQHqj_0-81" value="ใช่" style="edgeLabel;html=1;align=center;verticalAlign=middle;resizable=0;points=[];" vertex="1" connectable="0" parent="hYmHX3uaaJ9YyjQHqj_0-72">
          <mxGeometry x="-0.2498" y="2" relative="1" as="geometry">
            <mxPoint as="offset" />
          </mxGeometry>
        </mxCell>
        <mxCell id="hYmHX3uaaJ9YyjQHqj_0-78" style="edgeStyle=orthogonalEdgeStyle;rounded=0;orthogonalLoop=1;jettySize=auto;html=1;" edge="1" parent="1" source="hYmHX3uaaJ9YyjQHqj_0-70" target="hYmHX3uaaJ9YyjQHqj_0-73">
          <mxGeometry relative="1" as="geometry">
            <Array as="points">
              <mxPoint x="699" y="230" />
            </Array>
          </mxGeometry>
        </mxCell>
        <mxCell id="hYmHX3uaaJ9YyjQHqj_0-82" value="ไม่" style="edgeLabel;html=1;align=center;verticalAlign=middle;resizable=0;points=[];" vertex="1" connectable="0" parent="hYmHX3uaaJ9YyjQHqj_0-78">
          <mxGeometry x="0.0284" relative="1" as="geometry">
            <mxPoint as="offset" />
          </mxGeometry>
        </mxCell>
        <mxCell id="hYmHX3uaaJ9YyjQHqj_0-70" value="มี?" style="rhombus;whiteSpace=wrap;html=1;" vertex="1" parent="1">
          <mxGeometry x="595" y="194" width="75" height="70" as="geometry" />
        </mxCell>
        <mxCell id="hYmHX3uaaJ9YyjQHqj_0-79" style="edgeStyle=orthogonalEdgeStyle;rounded=0;orthogonalLoop=1;jettySize=auto;html=1;" edge="1" parent="1" source="hYmHX3uaaJ9YyjQHqj_0-73" target="hYmHX3uaaJ9YyjQHqj_0-6">
          <mxGeometry relative="1" as="geometry">
            <Array as="points">
              <mxPoint x="699" y="810" />
              <mxPoint x="301" y="810" />
            </Array>
          </mxGeometry>
        </mxCell>
        <mxCell id="hYmHX3uaaJ9YyjQHqj_0-73" value="rerturn Error Code&amp;nbsp;007&lt;span style=&quot;font-size: medium; text-align: start;&quot;&gt;&lt;/span&gt;" style="rounded=1;whiteSpace=wrap;html=1;" vertex="1" parent="1">
          <mxGeometry x="660" y="330" width="77.5" height="40" as="geometry" />
        </mxCell>
        <mxCell id="hYmHX3uaaJ9YyjQHqj_0-74" value="ตรวจสอบ Company Mapping" style="rounded=1;whiteSpace=wrap;html=1;" vertex="1" parent="1">
          <mxGeometry x="513.75" y="530" width="77.5" height="40" as="geometry" />
        </mxCell>
      </root>
    </mxGraphModel>
  </diagram>
  <diagram id="c2GV7L55yPWZv75rGPEK" name="หน้า-3">
    <mxGraphModel dx="1914" dy="1011" grid="1" gridSize="10" guides="1" tooltips="1" connect="1" arrows="1" fold="1" page="1" pageScale="1" pageWidth="827" pageHeight="1169" math="0" shadow="0">
      <root>
        <mxCell id="0" />
        <mxCell id="1" parent="0" />
        <mxCell id="fA6V8zlPKWbDNAwK2OZE-1" value="" style="group" vertex="1" connectable="0" parent="1">
          <mxGeometry x="690" y="960" width="96.25" height="177.5" as="geometry" />
        </mxCell>
        <mxCell id="fA6V8zlPKWbDNAwK2OZE-2" value="แก้ไขข้อมูลบริษัท&lt;span style=&quot;font-size: medium; text-align: start;&quot;&gt;&lt;/span&gt;" style="rounded=1;whiteSpace=wrap;html=1;" vertex="1" parent="fA6V8zlPKWbDNAwK2OZE-1">
          <mxGeometry x="-5" width="106.25" height="42.5" as="geometry" />
        </mxCell>
        <mxCell id="fA6V8zlPKWbDNAwK2OZE-3" value="สร้างข้อมูล ActivityLog&lt;span style=&quot;font-size: medium; text-align: start;&quot;&gt;&lt;/span&gt;" style="rounded=1;whiteSpace=wrap;html=1;" vertex="1" parent="fA6V8zlPKWbDNAwK2OZE-1">
          <mxGeometry x="6.25" y="67.5" width="77.5" height="40" as="geometry" />
        </mxCell>
        <mxCell id="fA6V8zlPKWbDNAwK2OZE-4" value="" style="edgeStyle=orthogonalEdgeStyle;rounded=0;orthogonalLoop=1;jettySize=auto;html=1;entryX=0.543;entryY=-0.009;entryDx=0;entryDy=0;entryPerimeter=0;" edge="1" parent="fA6V8zlPKWbDNAwK2OZE-1" source="fA6V8zlPKWbDNAwK2OZE-2" target="fA6V8zlPKWbDNAwK2OZE-3">
          <mxGeometry relative="1" as="geometry" />
        </mxCell>
        <mxCell id="fA6V8zlPKWbDNAwK2OZE-5" value="บันทึกข้อมูล&lt;span style=&quot;font-size: medium; text-align: start;&quot;&gt;&lt;/span&gt;" style="rounded=1;whiteSpace=wrap;html=1;" vertex="1" parent="fA6V8zlPKWbDNAwK2OZE-1">
          <mxGeometry x="6.25" y="137.5" width="77.5" height="40" as="geometry" />
        </mxCell>
        <mxCell id="fA6V8zlPKWbDNAwK2OZE-6" value="" style="edgeStyle=orthogonalEdgeStyle;rounded=0;orthogonalLoop=1;jettySize=auto;html=1;" edge="1" parent="fA6V8zlPKWbDNAwK2OZE-1" source="fA6V8zlPKWbDNAwK2OZE-3" target="fA6V8zlPKWbDNAwK2OZE-5">
          <mxGeometry relative="1" as="geometry" />
        </mxCell>
        <mxCell id="fA6V8zlPKWbDNAwK2OZE-9" style="edgeStyle=orthogonalEdgeStyle;rounded=0;orthogonalLoop=1;jettySize=auto;html=1;" edge="1" parent="1" source="fA6V8zlPKWbDNAwK2OZE-5" target="fA6V8zlPKWbDNAwK2OZE-27">
          <mxGeometry relative="1" as="geometry" />
        </mxCell>
        <mxCell id="fA6V8zlPKWbDNAwK2OZE-10" value="เริ่ม" style="ellipse;whiteSpace=wrap;html=1;" vertex="1" parent="1">
          <mxGeometry x="95" y="100" width="80" height="40" as="geometry" />
        </mxCell>
        <mxCell id="fA6V8zlPKWbDNAwK2OZE-11" value="ตรวจสอบสิทธิ์การใช้งาน" style="rounded=1;whiteSpace=wrap;html=1;" vertex="1" parent="1">
          <mxGeometry x="65" y="180" width="140" height="30" as="geometry" />
        </mxCell>
        <mxCell id="fA6V8zlPKWbDNAwK2OZE-12" value="" style="edgeStyle=orthogonalEdgeStyle;rounded=0;orthogonalLoop=1;jettySize=auto;html=1;" edge="1" parent="1" source="fA6V8zlPKWbDNAwK2OZE-10" target="fA6V8zlPKWbDNAwK2OZE-11">
          <mxGeometry relative="1" as="geometry" />
        </mxCell>
        <mxCell id="fA6V8zlPKWbDNAwK2OZE-13" value="มี ?" style="rhombus;whiteSpace=wrap;html=1;" vertex="1" parent="1">
          <mxGeometry x="105" y="240" width="60" height="60" as="geometry" />
        </mxCell>
        <mxCell id="fA6V8zlPKWbDNAwK2OZE-14" value="" style="edgeStyle=orthogonalEdgeStyle;rounded=0;orthogonalLoop=1;jettySize=auto;html=1;" edge="1" parent="1" source="fA6V8zlPKWbDNAwK2OZE-11" target="fA6V8zlPKWbDNAwK2OZE-13">
          <mxGeometry relative="1" as="geometry" />
        </mxCell>
        <mxCell id="fA6V8zlPKWbDNAwK2OZE-15" value="สิ้นสุด" style="ellipse;whiteSpace=wrap;html=1;" vertex="1" parent="1">
          <mxGeometry x="290" y="790" width="80" height="40" as="geometry" />
        </mxCell>
        <mxCell id="fA6V8zlPKWbDNAwK2OZE-16" style="edgeStyle=orthogonalEdgeStyle;rounded=0;orthogonalLoop=1;jettySize=auto;html=1;entryX=0;entryY=0.5;entryDx=0;entryDy=0;" edge="1" parent="1" source="fA6V8zlPKWbDNAwK2OZE-13" target="fA6V8zlPKWbDNAwK2OZE-15">
          <mxGeometry relative="1" as="geometry">
            <Array as="points">
              <mxPoint x="135" y="810" />
            </Array>
          </mxGeometry>
        </mxCell>
        <mxCell id="fA6V8zlPKWbDNAwK2OZE-17" value="ไม่" style="edgeLabel;html=1;align=center;verticalAlign=middle;resizable=0;points=[];" vertex="1" connectable="0" parent="fA6V8zlPKWbDNAwK2OZE-16">
          <mxGeometry x="-0.8925" y="1" relative="1" as="geometry">
            <mxPoint as="offset" />
          </mxGeometry>
        </mxCell>
        <mxCell id="fA6V8zlPKWbDNAwK2OZE-18" value="ตรวจสอบ Account &lt;br&gt;สถานะการใช้งาน" style="rounded=1;whiteSpace=wrap;html=1;" vertex="1" parent="1">
          <mxGeometry x="340.9999999999999" y="250" width="170" height="40" as="geometry" />
        </mxCell>
        <mxCell id="fA6V8zlPKWbDNAwK2OZE-19" value="" style="edgeStyle=orthogonalEdgeStyle;rounded=0;orthogonalLoop=1;jettySize=auto;html=1;" edge="1" parent="1" source="fA6V8zlPKWbDNAwK2OZE-13" target="fA6V8zlPKWbDNAwK2OZE-18">
          <mxGeometry relative="1" as="geometry">
            <Array as="points">
              <mxPoint x="245" y="270" />
              <mxPoint x="245" y="270" />
            </Array>
          </mxGeometry>
        </mxCell>
        <mxCell id="fA6V8zlPKWbDNAwK2OZE-20" value="ใช่" style="edgeLabel;html=1;align=center;verticalAlign=middle;resizable=0;points=[];" vertex="1" connectable="0" parent="fA6V8zlPKWbDNAwK2OZE-19">
          <mxGeometry x="-0.7797" y="-1" relative="1" as="geometry">
            <mxPoint as="offset" />
          </mxGeometry>
        </mxCell>
        <mxCell id="fA6V8zlPKWbDNAwK2OZE-21" value="" style="edgeStyle=orthogonalEdgeStyle;rounded=0;orthogonalLoop=1;jettySize=auto;html=1;" edge="1" parent="1" source="fA6V8zlPKWbDNAwK2OZE-18" target="fA6V8zlPKWbDNAwK2OZE-30">
          <mxGeometry relative="1" as="geometry" />
        </mxCell>
        <mxCell id="fA6V8zlPKWbDNAwK2OZE-22" style="edgeStyle=orthogonalEdgeStyle;rounded=0;orthogonalLoop=1;jettySize=auto;html=1;entryX=0;entryY=0;entryDx=0;entryDy=0;" edge="1" parent="1" target="fA6V8zlPKWbDNAwK2OZE-15">
          <mxGeometry relative="1" as="geometry">
            <Array as="points">
              <mxPoint x="273" y="790" />
              <mxPoint x="302" y="790" />
            </Array>
            <mxPoint x="225" y="780" as="sourcePoint" />
          </mxGeometry>
        </mxCell>
        <mxCell id="fA6V8zlPKWbDNAwK2OZE-23" value="" style="ellipse;whiteSpace=wrap;html=1;aspect=fixed;" vertex="1" parent="1">
          <mxGeometry x="202.5" y="760" width="30" height="30" as="geometry" />
        </mxCell>
        <mxCell id="fA6V8zlPKWbDNAwK2OZE-26" style="edgeStyle=orthogonalEdgeStyle;rounded=0;orthogonalLoop=1;jettySize=auto;html=1;" edge="1" parent="1" source="fA6V8zlPKWbDNAwK2OZE-27" target="fA6V8zlPKWbDNAwK2OZE-15">
          <mxGeometry relative="1" as="geometry" />
        </mxCell>
        <mxCell id="fA6V8zlPKWbDNAwK2OZE-27" value="" style="ellipse;whiteSpace=wrap;html=1;aspect=fixed;" vertex="1" parent="1">
          <mxGeometry x="411" y="795" width="30" height="30" as="geometry" />
        </mxCell>
        <mxCell id="fA6V8zlPKWbDNAwK2OZE-29" style="edgeStyle=orthogonalEdgeStyle;rounded=0;orthogonalLoop=1;jettySize=auto;html=1;entryX=0;entryY=0.5;entryDx=0;entryDy=0;" edge="1" parent="1" source="fA6V8zlPKWbDNAwK2OZE-53" target="fA6V8zlPKWbDNAwK2OZE-23">
          <mxGeometry relative="1" as="geometry">
            <mxPoint x="171.25" y="423" as="sourcePoint" />
            <Array as="points">
              <mxPoint x="155" y="423" />
              <mxPoint x="155" y="780" />
              <mxPoint x="203" y="780" />
            </Array>
          </mxGeometry>
        </mxCell>
        <mxCell id="fA6V8zlPKWbDNAwK2OZE-30" value="มีใน&lt;br&gt;ระบบ &lt;br&gt;?" style="rhombus;whiteSpace=wrap;html=1;" vertex="1" parent="1">
          <mxGeometry x="388.94999999999993" y="328" width="75" height="70" as="geometry" />
        </mxCell>
        <mxCell id="fA6V8zlPKWbDNAwK2OZE-31" value="status&lt;br style=&quot;border-color: var(--border-color);&quot;&gt;= 1 ?" style="rhombus;whiteSpace=wrap;html=1;" vertex="1" parent="1">
          <mxGeometry x="396.44999999999993" y="448" width="60" height="60" as="geometry" />
        </mxCell>
        <mxCell id="fA6V8zlPKWbDNAwK2OZE-32" value="" style="edgeStyle=orthogonalEdgeStyle;rounded=0;orthogonalLoop=1;jettySize=auto;html=1;" edge="1" parent="1" source="fA6V8zlPKWbDNAwK2OZE-30" target="fA6V8zlPKWbDNAwK2OZE-31">
          <mxGeometry relative="1" as="geometry" />
        </mxCell>
        <mxCell id="fA6V8zlPKWbDNAwK2OZE-33" value="ใช่" style="edgeLabel;html=1;align=center;verticalAlign=middle;resizable=0;points=[];" vertex="1" connectable="0" parent="fA6V8zlPKWbDNAwK2OZE-32">
          <mxGeometry x="-0.3254" y="2" relative="1" as="geometry">
            <mxPoint x="-2" as="offset" />
          </mxGeometry>
        </mxCell>
        <mxCell id="fA6V8zlPKWbDNAwK2OZE-34" value="Locked&lt;br style=&quot;border-color: var(--border-color);&quot;&gt;= 1 ?&amp;nbsp;" style="rhombus;whiteSpace=wrap;html=1;" vertex="1" parent="1">
          <mxGeometry x="396.44999999999993" y="578" width="60" height="60" as="geometry" />
        </mxCell>
        <mxCell id="fA6V8zlPKWbDNAwK2OZE-35" value="" style="edgeStyle=orthogonalEdgeStyle;rounded=0;orthogonalLoop=1;jettySize=auto;html=1;" edge="1" parent="1" source="fA6V8zlPKWbDNAwK2OZE-31" target="fA6V8zlPKWbDNAwK2OZE-34">
          <mxGeometry relative="1" as="geometry" />
        </mxCell>
        <mxCell id="fA6V8zlPKWbDNAwK2OZE-36" value="ไม่" style="edgeLabel;html=1;align=center;verticalAlign=middle;resizable=0;points=[];" vertex="1" connectable="0" parent="fA6V8zlPKWbDNAwK2OZE-35">
          <mxGeometry x="-0.3745" relative="1" as="geometry">
            <mxPoint as="offset" />
          </mxGeometry>
        </mxCell>
        <mxCell id="fA6V8zlPKWbDNAwK2OZE-37" style="edgeStyle=orthogonalEdgeStyle;rounded=0;orthogonalLoop=1;jettySize=auto;html=1;" edge="1" parent="1" source="fA6V8zlPKWbDNAwK2OZE-30" target="fA6V8zlPKWbDNAwK2OZE-45">
          <mxGeometry relative="1" as="geometry">
            <mxPoint x="322.6" y="363" as="targetPoint" />
          </mxGeometry>
        </mxCell>
        <mxCell id="fA6V8zlPKWbDNAwK2OZE-38" value="ไม่" style="edgeLabel;html=1;align=center;verticalAlign=middle;resizable=0;points=[];" vertex="1" connectable="0" parent="fA6V8zlPKWbDNAwK2OZE-37">
          <mxGeometry x="-0.6573" y="2" relative="1" as="geometry">
            <mxPoint as="offset" />
          </mxGeometry>
        </mxCell>
        <mxCell id="fA6V8zlPKWbDNAwK2OZE-39" style="edgeStyle=orthogonalEdgeStyle;rounded=0;orthogonalLoop=1;jettySize=auto;html=1;entryX=0.5;entryY=0;entryDx=0;entryDy=0;" edge="1" parent="1" source="fA6V8zlPKWbDNAwK2OZE-40" target="fA6V8zlPKWbDNAwK2OZE-23">
          <mxGeometry relative="1" as="geometry" />
        </mxCell>
        <mxCell id="fA6V8zlPKWbDNAwK2OZE-40" value="rerturn Error Code&amp;nbsp;011&lt;span style=&quot;font-size: medium; text-align: start;&quot;&gt;&lt;/span&gt;" style="rounded=1;whiteSpace=wrap;html=1;" vertex="1" parent="1">
          <mxGeometry x="272.5" y="700" width="77.5" height="40" as="geometry" />
        </mxCell>
        <mxCell id="fA6V8zlPKWbDNAwK2OZE-42" value="" style="edgeStyle=orthogonalEdgeStyle;rounded=0;orthogonalLoop=1;jettySize=auto;html=1;entryX=0;entryY=0.5;entryDx=0;entryDy=0;" edge="1" parent="1" source="fA6V8zlPKWbDNAwK2OZE-34" target="EVayzTNArQGLbtbl_LX4-3">
          <mxGeometry relative="1" as="geometry">
            <mxPoint x="510" y="440" as="targetPoint" />
            <Array as="points">
              <mxPoint x="480" y="608" />
              <mxPoint x="480" y="440" />
              <mxPoint x="540" y="440" />
              <mxPoint x="540" y="125" />
            </Array>
          </mxGeometry>
        </mxCell>
        <mxCell id="fA6V8zlPKWbDNAwK2OZE-43" value="ไม่" style="edgeLabel;html=1;align=center;verticalAlign=middle;resizable=0;points=[];" vertex="1" connectable="0" parent="fA6V8zlPKWbDNAwK2OZE-42">
          <mxGeometry x="0.1426" y="-1" relative="1" as="geometry">
            <mxPoint as="offset" />
          </mxGeometry>
        </mxCell>
        <mxCell id="fA6V8zlPKWbDNAwK2OZE-45" value="สร้างข้อมูล ActivityLog&lt;span style=&quot;font-size: medium; text-align: start;&quot;&gt;&lt;/span&gt;" style="rounded=1;whiteSpace=wrap;html=1;" vertex="1" parent="1">
          <mxGeometry x="272.5" y="343" width="77.5" height="40" as="geometry" />
        </mxCell>
        <mxCell id="fA6V8zlPKWbDNAwK2OZE-46" style="edgeStyle=orthogonalEdgeStyle;rounded=0;orthogonalLoop=1;jettySize=auto;html=1;entryX=0;entryY=0;entryDx=0;entryDy=0;" edge="1" parent="1" source="fA6V8zlPKWbDNAwK2OZE-47" target="fA6V8zlPKWbDNAwK2OZE-23">
          <mxGeometry relative="1" as="geometry">
            <Array as="points">
              <mxPoint x="165" y="540" />
              <mxPoint x="165" y="764" />
              <mxPoint x="207" y="764" />
            </Array>
          </mxGeometry>
        </mxCell>
        <mxCell id="fA6V8zlPKWbDNAwK2OZE-47" value="rerturn Error Code&amp;nbsp;004&lt;span style=&quot;font-size: medium; text-align: start;&quot;&gt;&lt;/span&gt;" style="rounded=1;whiteSpace=wrap;html=1;" vertex="1" parent="1">
          <mxGeometry x="171.25" y="520" width="77.5" height="40" as="geometry" />
        </mxCell>
        <mxCell id="fA6V8zlPKWbDNAwK2OZE-48" value="สร้างข้อมูล ActivityLog&lt;span style=&quot;font-size: medium; text-align: start;&quot;&gt;&lt;/span&gt;" style="rounded=1;whiteSpace=wrap;html=1;" vertex="1" parent="1">
          <mxGeometry x="272.5" y="458" width="77.5" height="40" as="geometry" />
        </mxCell>
        <mxCell id="fA6V8zlPKWbDNAwK2OZE-49" value="" style="edgeStyle=orthogonalEdgeStyle;rounded=0;orthogonalLoop=1;jettySize=auto;html=1;" edge="1" parent="1" source="fA6V8zlPKWbDNAwK2OZE-31" target="fA6V8zlPKWbDNAwK2OZE-48">
          <mxGeometry relative="1" as="geometry" />
        </mxCell>
        <mxCell id="fA6V8zlPKWbDNAwK2OZE-50" value="ใช่" style="edgeLabel;html=1;align=center;verticalAlign=middle;resizable=0;points=[];" vertex="1" connectable="0" parent="fA6V8zlPKWbDNAwK2OZE-49">
          <mxGeometry x="-0.1729" relative="1" as="geometry">
            <mxPoint as="offset" />
          </mxGeometry>
        </mxCell>
        <mxCell id="fA6V8zlPKWbDNAwK2OZE-51" value="บันทึกข้อมูล&lt;span style=&quot;font-size: medium; text-align: start;&quot;&gt;&lt;/span&gt;" style="rounded=1;whiteSpace=wrap;html=1;" vertex="1" parent="1">
          <mxGeometry x="175" y="343" width="77.5" height="40" as="geometry" />
        </mxCell>
        <mxCell id="fA6V8zlPKWbDNAwK2OZE-52" value="" style="edgeStyle=orthogonalEdgeStyle;rounded=0;orthogonalLoop=1;jettySize=auto;html=1;" edge="1" parent="1" source="fA6V8zlPKWbDNAwK2OZE-45" target="fA6V8zlPKWbDNAwK2OZE-51">
          <mxGeometry relative="1" as="geometry" />
        </mxCell>
        <mxCell id="fA6V8zlPKWbDNAwK2OZE-53" value="rerturn Error Code&amp;nbsp;001&lt;span style=&quot;font-size: medium; text-align: start;&quot;&gt;&lt;/span&gt;" style="rounded=1;whiteSpace=wrap;html=1;" vertex="1" parent="1">
          <mxGeometry x="175" y="408" width="77.5" height="40" as="geometry" />
        </mxCell>
        <mxCell id="fA6V8zlPKWbDNAwK2OZE-54" value="" style="edgeStyle=orthogonalEdgeStyle;rounded=0;orthogonalLoop=1;jettySize=auto;html=1;" edge="1" parent="1" source="fA6V8zlPKWbDNAwK2OZE-51" target="fA6V8zlPKWbDNAwK2OZE-53">
          <mxGeometry relative="1" as="geometry" />
        </mxCell>
        <mxCell id="fA6V8zlPKWbDNAwK2OZE-55" value="" style="edgeStyle=orthogonalEdgeStyle;rounded=0;orthogonalLoop=1;jettySize=auto;html=1;" edge="1" parent="1" source="fA6V8zlPKWbDNAwK2OZE-56" target="fA6V8zlPKWbDNAwK2OZE-47">
          <mxGeometry relative="1" as="geometry" />
        </mxCell>
        <mxCell id="fA6V8zlPKWbDNAwK2OZE-56" value="บันทึกข้อมูล&lt;span style=&quot;font-size: medium; text-align: start;&quot;&gt;&lt;/span&gt;" style="rounded=1;whiteSpace=wrap;html=1;" vertex="1" parent="1">
          <mxGeometry x="272.5" y="520" width="77.5" height="40" as="geometry" />
        </mxCell>
        <mxCell id="fA6V8zlPKWbDNAwK2OZE-57" value="" style="edgeStyle=orthogonalEdgeStyle;rounded=0;orthogonalLoop=1;jettySize=auto;html=1;" edge="1" parent="1" source="fA6V8zlPKWbDNAwK2OZE-48" target="fA6V8zlPKWbDNAwK2OZE-56">
          <mxGeometry relative="1" as="geometry" />
        </mxCell>
        <mxCell id="fA6V8zlPKWbDNAwK2OZE-58" value="สร้างข้อมูล ActivityLog&lt;span style=&quot;font-size: medium; text-align: start;&quot;&gt;&lt;/span&gt;" style="rounded=1;whiteSpace=wrap;html=1;" vertex="1" parent="1">
          <mxGeometry x="272.5" y="588" width="77.5" height="40" as="geometry" />
        </mxCell>
        <mxCell id="fA6V8zlPKWbDNAwK2OZE-59" value="" style="edgeStyle=orthogonalEdgeStyle;rounded=0;orthogonalLoop=1;jettySize=auto;html=1;" edge="1" parent="1" source="fA6V8zlPKWbDNAwK2OZE-34" target="fA6V8zlPKWbDNAwK2OZE-58">
          <mxGeometry relative="1" as="geometry" />
        </mxCell>
        <mxCell id="fA6V8zlPKWbDNAwK2OZE-60" value="ใช่" style="edgeLabel;html=1;align=center;verticalAlign=middle;resizable=0;points=[];" vertex="1" connectable="0" parent="fA6V8zlPKWbDNAwK2OZE-59">
          <mxGeometry x="-0.1659" y="-1" relative="1" as="geometry">
            <mxPoint as="offset" />
          </mxGeometry>
        </mxCell>
        <mxCell id="fA6V8zlPKWbDNAwK2OZE-61" value="" style="edgeStyle=orthogonalEdgeStyle;rounded=0;orthogonalLoop=1;jettySize=auto;html=1;" edge="1" parent="1" source="fA6V8zlPKWbDNAwK2OZE-62" target="fA6V8zlPKWbDNAwK2OZE-40">
          <mxGeometry relative="1" as="geometry" />
        </mxCell>
        <mxCell id="fA6V8zlPKWbDNAwK2OZE-62" value="บันทึกข้อมูล&lt;span style=&quot;font-size: medium; text-align: start;&quot;&gt;&lt;/span&gt;" style="rounded=1;whiteSpace=wrap;html=1;" vertex="1" parent="1">
          <mxGeometry x="272.5" y="645" width="77.5" height="40" as="geometry" />
        </mxCell>
        <mxCell id="fA6V8zlPKWbDNAwK2OZE-64" value="" style="edgeStyle=orthogonalEdgeStyle;rounded=0;orthogonalLoop=1;jettySize=auto;html=1;" edge="1" parent="1" source="fA6V8zlPKWbDNAwK2OZE-58" target="fA6V8zlPKWbDNAwK2OZE-62">
          <mxGeometry relative="1" as="geometry" />
        </mxCell>
        <mxCell id="fA6V8zlPKWbDNAwK2OZE-69" style="edgeStyle=orthogonalEdgeStyle;rounded=0;orthogonalLoop=1;jettySize=auto;html=1;entryX=0.5;entryY=0;entryDx=0;entryDy=0;" edge="1" parent="1" source="fA6V8zlPKWbDNAwK2OZE-73" target="fA6V8zlPKWbDNAwK2OZE-78">
          <mxGeometry relative="1" as="geometry">
            <mxPoint x="730" y="740" as="targetPoint" />
          </mxGeometry>
        </mxCell>
        <mxCell id="fA6V8zlPKWbDNAwK2OZE-70" value="ใช่" style="edgeLabel;html=1;align=center;verticalAlign=middle;resizable=0;points=[];" vertex="1" connectable="0" parent="fA6V8zlPKWbDNAwK2OZE-69">
          <mxGeometry x="-0.1526" y="1" relative="1" as="geometry">
            <mxPoint as="offset" />
          </mxGeometry>
        </mxCell>
        <mxCell id="fA6V8zlPKWbDNAwK2OZE-71" style="edgeStyle=orthogonalEdgeStyle;rounded=0;orthogonalLoop=1;jettySize=auto;html=1;entryX=1;entryY=0.5;entryDx=0;entryDy=0;" edge="1" parent="1" source="fA6V8zlPKWbDNAwK2OZE-73" target="fA6V8zlPKWbDNAwK2OZE-2">
          <mxGeometry relative="1" as="geometry">
            <Array as="points">
              <mxPoint x="806" y="675" />
              <mxPoint x="806" y="981" />
            </Array>
          </mxGeometry>
        </mxCell>
        <mxCell id="fA6V8zlPKWbDNAwK2OZE-72" value="ไม่" style="edgeLabel;html=1;align=center;verticalAlign=middle;resizable=0;points=[];" vertex="1" connectable="0" parent="fA6V8zlPKWbDNAwK2OZE-71">
          <mxGeometry x="-0.8879" y="1" relative="1" as="geometry">
            <mxPoint as="offset" />
          </mxGeometry>
        </mxCell>
        <mxCell id="fA6V8zlPKWbDNAwK2OZE-73" value="Logo ?" style="rhombus;whiteSpace=wrap;html=1;" vertex="1" parent="1">
          <mxGeometry x="700" y="645" width="60" height="60" as="geometry" />
        </mxCell>
        <mxCell id="fA6V8zlPKWbDNAwK2OZE-74" value="" style="edgeStyle=orthogonalEdgeStyle;rounded=0;orthogonalLoop=1;jettySize=auto;html=1;" edge="1" parent="1" source="fA6V8zlPKWbDNAwK2OZE-78" target="fA6V8zlPKWbDNAwK2OZE-83">
          <mxGeometry relative="1" as="geometry" />
        </mxCell>
        <mxCell id="fA6V8zlPKWbDNAwK2OZE-75" value="ใช่" style="edgeLabel;html=1;align=center;verticalAlign=middle;resizable=0;points=[];" vertex="1" connectable="0" parent="fA6V8zlPKWbDNAwK2OZE-74">
          <mxGeometry x="0.4745" y="1" relative="1" as="geometry">
            <mxPoint as="offset" />
          </mxGeometry>
        </mxCell>
        <mxCell id="fA6V8zlPKWbDNAwK2OZE-76" style="edgeStyle=orthogonalEdgeStyle;rounded=0;orthogonalLoop=1;jettySize=auto;html=1;" edge="1" parent="1" source="fA6V8zlPKWbDNAwK2OZE-78" target="fA6V8zlPKWbDNAwK2OZE-87">
          <mxGeometry relative="1" as="geometry" />
        </mxCell>
        <mxCell id="fA6V8zlPKWbDNAwK2OZE-77" value="ไม่" style="edgeLabel;html=1;align=center;verticalAlign=middle;resizable=0;points=[];" vertex="1" connectable="0" parent="fA6V8zlPKWbDNAwK2OZE-76">
          <mxGeometry x="0.5378" relative="1" as="geometry">
            <mxPoint as="offset" />
          </mxGeometry>
        </mxCell>
        <mxCell id="fA6V8zlPKWbDNAwK2OZE-78" value="ไฟล&lt;br&gt;รูปภาพ ?" style="rhombus;whiteSpace=wrap;html=1;" vertex="1" parent="1">
          <mxGeometry x="662.5" y="742.5" width="65" height="65" as="geometry" />
        </mxCell>
        <mxCell id="fA6V8zlPKWbDNAwK2OZE-79" style="edgeStyle=orthogonalEdgeStyle;rounded=0;orthogonalLoop=1;jettySize=auto;html=1;entryX=0.5;entryY=0;entryDx=0;entryDy=0;" edge="1" parent="1" source="fA6V8zlPKWbDNAwK2OZE-83" target="fA6V8zlPKWbDNAwK2OZE-2">
          <mxGeometry relative="1" as="geometry" />
        </mxCell>
        <mxCell id="fA6V8zlPKWbDNAwK2OZE-80" value="ไม่" style="edgeLabel;html=1;align=center;verticalAlign=middle;resizable=0;points=[];" vertex="1" connectable="0" parent="fA6V8zlPKWbDNAwK2OZE-79">
          <mxGeometry x="-0.6238" y="2" relative="1" as="geometry">
            <mxPoint as="offset" />
          </mxGeometry>
        </mxCell>
        <mxCell id="fA6V8zlPKWbDNAwK2OZE-81" style="edgeStyle=orthogonalEdgeStyle;rounded=0;orthogonalLoop=1;jettySize=auto;html=1;entryX=0.5;entryY=0;entryDx=0;entryDy=0;" edge="1" parent="1" source="fA6V8zlPKWbDNAwK2OZE-83" target="fA6V8zlPKWbDNAwK2OZE-93">
          <mxGeometry relative="1" as="geometry" />
        </mxCell>
        <mxCell id="fA6V8zlPKWbDNAwK2OZE-82" value="ใช่" style="edgeLabel;html=1;align=center;verticalAlign=middle;resizable=0;points=[];" vertex="1" connectable="0" parent="fA6V8zlPKWbDNAwK2OZE-81">
          <mxGeometry x="-0.6182" y="-1" relative="1" as="geometry">
            <mxPoint as="offset" />
          </mxGeometry>
        </mxCell>
        <mxCell id="fA6V8zlPKWbDNAwK2OZE-83" value="ขนาดไฟล&lt;br&gt;&amp;nbsp;&amp;gt; 50mb ?" style="rhombus;whiteSpace=wrap;html=1;" vertex="1" parent="1">
          <mxGeometry x="655" y="830" width="80" height="70" as="geometry" />
        </mxCell>
        <mxCell id="fA6V8zlPKWbDNAwK2OZE-84" style="edgeStyle=orthogonalEdgeStyle;rounded=0;orthogonalLoop=1;jettySize=auto;html=1;entryX=1;entryY=0.5;entryDx=0;entryDy=0;" edge="1" parent="1" source="fA6V8zlPKWbDNAwK2OZE-85" target="fA6V8zlPKWbDNAwK2OZE-27">
          <mxGeometry relative="1" as="geometry" />
        </mxCell>
        <mxCell id="fA6V8zlPKWbDNAwK2OZE-85" value="rerturn Error Code 043&lt;span style=&quot;font-size: medium; text-align: start;&quot;&gt;&lt;/span&gt;" style="rounded=1;whiteSpace=wrap;html=1;" vertex="1" parent="1">
          <mxGeometry x="468.35" y="825" width="77.5" height="40" as="geometry" />
        </mxCell>
        <mxCell id="fA6V8zlPKWbDNAwK2OZE-86" value="" style="edgeStyle=orthogonalEdgeStyle;rounded=0;orthogonalLoop=1;jettySize=auto;html=1;" edge="1" parent="1" source="fA6V8zlPKWbDNAwK2OZE-87" target="fA6V8zlPKWbDNAwK2OZE-89">
          <mxGeometry relative="1" as="geometry" />
        </mxCell>
        <mxCell id="fA6V8zlPKWbDNAwK2OZE-87" value="สร้างข้อมูล ActivityLog&lt;span style=&quot;font-size: medium; text-align: start;&quot;&gt;&lt;/span&gt;" style="rounded=1;whiteSpace=wrap;html=1;" vertex="1" parent="1">
          <mxGeometry x="560" y="755" width="77.5" height="40" as="geometry" />
        </mxCell>
        <mxCell id="fA6V8zlPKWbDNAwK2OZE-88" value="" style="edgeStyle=orthogonalEdgeStyle;rounded=0;orthogonalLoop=1;jettySize=auto;html=1;entryX=0.5;entryY=0;entryDx=0;entryDy=0;" edge="1" parent="1" source="fA6V8zlPKWbDNAwK2OZE-89" target="fA6V8zlPKWbDNAwK2OZE-85">
          <mxGeometry relative="1" as="geometry" />
        </mxCell>
        <mxCell id="fA6V8zlPKWbDNAwK2OZE-89" value="บันทึกข้อมูล&lt;span style=&quot;font-size: medium; text-align: start;&quot;&gt;&lt;/span&gt;" style="rounded=1;whiteSpace=wrap;html=1;" vertex="1" parent="1">
          <mxGeometry x="468.35" y="755" width="77.5" height="40" as="geometry" />
        </mxCell>
        <mxCell id="fA6V8zlPKWbDNAwK2OZE-90" style="edgeStyle=orthogonalEdgeStyle;rounded=0;orthogonalLoop=1;jettySize=auto;html=1;entryX=0.871;entryY=0.926;entryDx=0;entryDy=0;entryPerimeter=0;" edge="1" parent="1" source="fA6V8zlPKWbDNAwK2OZE-91" target="fA6V8zlPKWbDNAwK2OZE-27">
          <mxGeometry relative="1" as="geometry">
            <mxPoint x="430" y="990.0000000000002" as="targetPoint" />
          </mxGeometry>
        </mxCell>
        <mxCell id="fA6V8zlPKWbDNAwK2OZE-91" value="rerturn Error Code 044&lt;span style=&quot;font-size: medium; text-align: start;&quot;&gt;&lt;/span&gt;" style="rounded=1;whiteSpace=wrap;html=1;" vertex="1" parent="1">
          <mxGeometry x="468.35" y="970" width="77.5" height="40" as="geometry" />
        </mxCell>
        <mxCell id="fA6V8zlPKWbDNAwK2OZE-92" style="edgeStyle=orthogonalEdgeStyle;rounded=0;orthogonalLoop=1;jettySize=auto;html=1;entryX=1;entryY=0.5;entryDx=0;entryDy=0;" edge="1" parent="1" source="fA6V8zlPKWbDNAwK2OZE-93" target="fA6V8zlPKWbDNAwK2OZE-95">
          <mxGeometry relative="1" as="geometry" />
        </mxCell>
        <mxCell id="fA6V8zlPKWbDNAwK2OZE-93" value="สร้างข้อมูล ActivityLog&lt;span style=&quot;font-size: medium; text-align: start;&quot;&gt;&lt;/span&gt;" style="rounded=1;whiteSpace=wrap;html=1;" vertex="1" parent="1">
          <mxGeometry x="570" y="900" width="77.5" height="40" as="geometry" />
        </mxCell>
        <mxCell id="fA6V8zlPKWbDNAwK2OZE-94" style="edgeStyle=orthogonalEdgeStyle;rounded=0;orthogonalLoop=1;jettySize=auto;html=1;" edge="1" parent="1" source="fA6V8zlPKWbDNAwK2OZE-95" target="fA6V8zlPKWbDNAwK2OZE-91">
          <mxGeometry relative="1" as="geometry" />
        </mxCell>
        <mxCell id="fA6V8zlPKWbDNAwK2OZE-95" value="บันทึกข้อมูล&lt;span style=&quot;font-size: medium; text-align: start;&quot;&gt;&lt;/span&gt;" style="rounded=1;whiteSpace=wrap;html=1;" vertex="1" parent="1">
          <mxGeometry x="468.35" y="900" width="77.5" height="40" as="geometry" />
        </mxCell>
        <mxCell id="EVayzTNArQGLbtbl_LX4-3" value="ดึงข้อมูลบริษัทด้วย companyId" style="rounded=1;whiteSpace=wrap;html=1;" vertex="1" parent="1">
          <mxGeometry x="577.5" y="105" width="77.5" height="40" as="geometry" />
        </mxCell>
        <mxCell id="EVayzTNArQGLbtbl_LX4-4" value="ตรวจสอบ Role ของ Account" style="rounded=1;whiteSpace=wrap;html=1;" vertex="1" parent="1">
          <mxGeometry x="663" y="226" width="77.5" height="40" as="geometry" />
        </mxCell>
        <mxCell id="EVayzTNArQGLbtbl_LX4-5" value="" style="edgeStyle=orthogonalEdgeStyle;rounded=0;orthogonalLoop=1;jettySize=auto;html=1;entryX=0.5;entryY=0;entryDx=0;entryDy=0;" edge="1" parent="1" source="EVayzTNArQGLbtbl_LX4-4" target="EVayzTNArQGLbtbl_LX4-9">
          <mxGeometry relative="1" as="geometry">
            <mxPoint x="701.8" y="306.04999999999995" as="targetPoint" />
          </mxGeometry>
        </mxCell>
        <mxCell id="EVayzTNArQGLbtbl_LX4-9" value="Super&lt;br&gt;Admin ?" style="rhombus;whiteSpace=wrap;html=1;" vertex="1" parent="1">
          <mxGeometry x="654.25" y="312" width="75" height="70" as="geometry" />
        </mxCell>
        <mxCell id="EVayzTNArQGLbtbl_LX4-10" style="edgeStyle=orthogonalEdgeStyle;rounded=0;orthogonalLoop=1;jettySize=auto;html=1;entryX=0.5;entryY=0;entryDx=0;entryDy=0;exitX=1;exitY=0.5;exitDx=0;exitDy=0;" edge="1" parent="1" source="EVayzTNArQGLbtbl_LX4-9" target="fA6V8zlPKWbDNAwK2OZE-73">
          <mxGeometry relative="1" as="geometry">
            <mxPoint x="591.75" y="371" as="targetPoint" />
            <mxPoint x="661.75" y="346" as="sourcePoint" />
            <Array as="points">
              <mxPoint x="730" y="347" />
            </Array>
          </mxGeometry>
        </mxCell>
        <mxCell id="EVayzTNArQGLbtbl_LX4-11" value="ใช่" style="edgeLabel;html=1;align=center;verticalAlign=middle;resizable=0;points=[];" vertex="1" connectable="0" parent="EVayzTNArQGLbtbl_LX4-10">
          <mxGeometry x="-0.2717" relative="1" as="geometry">
            <mxPoint as="offset" />
          </mxGeometry>
        </mxCell>
        <mxCell id="EVayzTNArQGLbtbl_LX4-33" style="edgeStyle=orthogonalEdgeStyle;rounded=0;orthogonalLoop=1;jettySize=auto;html=1;entryX=0;entryY=0.5;entryDx=0;entryDy=0;" edge="1" parent="1" source="EVayzTNArQGLbtbl_LX4-12" target="fA6V8zlPKWbDNAwK2OZE-73">
          <mxGeometry relative="1" as="geometry" />
        </mxCell>
        <mxCell id="EVayzTNArQGLbtbl_LX4-34" value="ใช่" style="edgeLabel;html=1;align=center;verticalAlign=middle;resizable=0;points=[];" vertex="1" connectable="0" parent="EVayzTNArQGLbtbl_LX4-33">
          <mxGeometry x="-0.8106" relative="1" as="geometry">
            <mxPoint as="offset" />
          </mxGeometry>
        </mxCell>
        <mxCell id="EVayzTNArQGLbtbl_LX4-12" value="Company&lt;br&gt;Map &amp;gt; 0" style="rhombus;whiteSpace=wrap;html=1;" vertex="1" parent="1">
          <mxGeometry x="565.35" y="496" width="71.65" height="70" as="geometry" />
        </mxCell>
        <mxCell id="EVayzTNArQGLbtbl_LX4-13" value="" style="edgeStyle=orthogonalEdgeStyle;rounded=0;orthogonalLoop=1;jettySize=auto;html=1;entryX=0.5;entryY=0;entryDx=0;entryDy=0;" edge="1" parent="1" target="EVayzTNArQGLbtbl_LX4-12">
          <mxGeometry relative="1" as="geometry">
            <Array as="points">
              <mxPoint x="601" y="451" />
            </Array>
            <mxPoint x="661.7822580645161" y="451.0322580645161" as="sourcePoint" />
          </mxGeometry>
        </mxCell>
        <mxCell id="EVayzTNArQGLbtbl_LX4-14" style="edgeStyle=orthogonalEdgeStyle;rounded=0;orthogonalLoop=1;jettySize=auto;html=1;entryX=0.5;entryY=0;entryDx=0;entryDy=0;" edge="1" parent="1" source="EVayzTNArQGLbtbl_LX4-15" target="fA6V8zlPKWbDNAwK2OZE-27">
          <mxGeometry relative="1" as="geometry">
            <mxPoint x="490.25" y="669" as="targetPoint" />
            <Array as="points">
              <mxPoint x="529" y="650" />
              <mxPoint x="426" y="650" />
            </Array>
          </mxGeometry>
        </mxCell>
        <mxCell id="EVayzTNArQGLbtbl_LX4-15" value="rerturn Error Code&amp;nbsp;002&lt;span style=&quot;font-size: medium; text-align: start;&quot;&gt;&lt;/span&gt;" style="rounded=1;whiteSpace=wrap;html=1;" vertex="1" parent="1">
          <mxGeometry x="490" y="566" width="77.5" height="40" as="geometry" />
        </mxCell>
        <mxCell id="EVayzTNArQGLbtbl_LX4-16" style="edgeStyle=orthogonalEdgeStyle;rounded=0;orthogonalLoop=1;jettySize=auto;html=1;entryX=0.555;entryY=0;entryDx=0;entryDy=0;entryPerimeter=0;" edge="1" parent="1" source="EVayzTNArQGLbtbl_LX4-12" target="EVayzTNArQGLbtbl_LX4-15">
          <mxGeometry relative="1" as="geometry">
            <Array as="points">
              <mxPoint x="533" y="531" />
            </Array>
          </mxGeometry>
        </mxCell>
        <mxCell id="EVayzTNArQGLbtbl_LX4-17" value="ไม่" style="edgeLabel;html=1;align=center;verticalAlign=middle;resizable=0;points=[];" vertex="1" connectable="0" parent="EVayzTNArQGLbtbl_LX4-16">
          <mxGeometry x="-0.4384" y="-1" relative="1" as="geometry">
            <mxPoint as="offset" />
          </mxGeometry>
        </mxCell>
        <mxCell id="EVayzTNArQGLbtbl_LX4-21" style="edgeStyle=orthogonalEdgeStyle;rounded=0;orthogonalLoop=1;jettySize=auto;html=1;" edge="1" parent="1" source="EVayzTNArQGLbtbl_LX4-25" target="EVayzTNArQGLbtbl_LX4-4">
          <mxGeometry relative="1" as="geometry">
            <Array as="points">
              <mxPoint x="740" y="176" />
              <mxPoint x="702" y="176" />
            </Array>
          </mxGeometry>
        </mxCell>
        <mxCell id="EVayzTNArQGLbtbl_LX4-22" value="ใช่" style="edgeLabel;html=1;align=center;verticalAlign=middle;resizable=0;points=[];" vertex="1" connectable="0" parent="EVayzTNArQGLbtbl_LX4-21">
          <mxGeometry x="-0.2498" y="2" relative="1" as="geometry">
            <mxPoint as="offset" />
          </mxGeometry>
        </mxCell>
        <mxCell id="EVayzTNArQGLbtbl_LX4-25" value="มี?" style="rhombus;whiteSpace=wrap;html=1;" vertex="1" parent="1">
          <mxGeometry x="700.63" y="90" width="75" height="70" as="geometry" />
        </mxCell>
        <mxCell id="EVayzTNArQGLbtbl_LX4-2" style="edgeStyle=orthogonalEdgeStyle;rounded=0;orthogonalLoop=1;jettySize=auto;html=1;" edge="1" parent="1" source="EVayzTNArQGLbtbl_LX4-3" target="EVayzTNArQGLbtbl_LX4-25">
          <mxGeometry relative="1" as="geometry">
            <Array as="points" />
          </mxGeometry>
        </mxCell>
        <mxCell id="EVayzTNArQGLbtbl_LX4-31" style="edgeStyle=orthogonalEdgeStyle;rounded=0;orthogonalLoop=1;jettySize=auto;html=1;entryX=0.5;entryY=1;entryDx=0;entryDy=0;" edge="1" parent="1" source="EVayzTNArQGLbtbl_LX4-26" target="fA6V8zlPKWbDNAwK2OZE-15">
          <mxGeometry relative="1" as="geometry">
            <mxPoint x="820" y="1152.3076923076924" as="targetPoint" />
            <Array as="points">
              <mxPoint x="789" y="630" />
              <mxPoint x="821" y="630" />
              <mxPoint x="821" y="990" />
              <mxPoint x="820" y="990" />
              <mxPoint x="820" y="1150" />
              <mxPoint x="330" y="1150" />
            </Array>
          </mxGeometry>
        </mxCell>
        <mxCell id="EVayzTNArQGLbtbl_LX4-26" value="rerturn Error Code&amp;nbsp;007&lt;span style=&quot;font-size: medium; text-align: start;&quot;&gt;&lt;/span&gt;" style="rounded=1;whiteSpace=wrap;html=1;" vertex="1" parent="1">
          <mxGeometry x="750" y="288" width="77.5" height="40" as="geometry" />
        </mxCell>
        <mxCell id="EVayzTNArQGLbtbl_LX4-23" style="edgeStyle=orthogonalEdgeStyle;rounded=0;orthogonalLoop=1;jettySize=auto;html=1;" edge="1" parent="1" source="EVayzTNArQGLbtbl_LX4-25" target="EVayzTNArQGLbtbl_LX4-26">
          <mxGeometry relative="1" as="geometry">
            <Array as="points">
              <mxPoint x="790" y="125" />
              <mxPoint x="790" y="220" />
              <mxPoint x="789" y="220" />
            </Array>
          </mxGeometry>
        </mxCell>
        <mxCell id="EVayzTNArQGLbtbl_LX4-24" value="ไม่" style="edgeLabel;html=1;align=center;verticalAlign=middle;resizable=0;points=[];" vertex="1" connectable="0" parent="EVayzTNArQGLbtbl_LX4-23">
          <mxGeometry x="0.0284" relative="1" as="geometry">
            <mxPoint as="offset" />
          </mxGeometry>
        </mxCell>
        <mxCell id="EVayzTNArQGLbtbl_LX4-27" value="ตรวจสอบ Company Mapping" style="rounded=1;whiteSpace=wrap;html=1;" vertex="1" parent="1">
          <mxGeometry x="637" y="426" width="77.5" height="40" as="geometry" />
        </mxCell>
        <mxCell id="EVayzTNArQGLbtbl_LX4-7" value="" style="edgeStyle=orthogonalEdgeStyle;rounded=0;orthogonalLoop=1;jettySize=auto;html=1;" edge="1" parent="1" source="EVayzTNArQGLbtbl_LX4-9" target="EVayzTNArQGLbtbl_LX4-27">
          <mxGeometry relative="1" as="geometry" />
        </mxCell>
        <mxCell id="EVayzTNArQGLbtbl_LX4-8" value="ไม่" style="edgeLabel;html=1;align=center;verticalAlign=middle;resizable=0;points=[];" vertex="1" connectable="0" parent="EVayzTNArQGLbtbl_LX4-7">
          <mxGeometry x="-0.0381" relative="1" as="geometry">
            <mxPoint as="offset" />
          </mxGeometry>
        </mxCell>
      </root>
    </mxGraphModel>
  </diagram>
  <diagram id="DzqDJWrxNIgvo71s0kyZ" name="หน้า-4">
    <mxGraphModel dx="1063" dy="562" grid="1" gridSize="10" guides="1" tooltips="1" connect="1" arrows="1" fold="1" page="1" pageScale="1" pageWidth="827" pageHeight="1169" math="0" shadow="0">
      <root>
        <mxCell id="0" />
        <mxCell id="1" parent="0" />
        <mxCell id="BkwM_1ZzVKko48BGfQB7-84" value="" style="group" vertex="1" connectable="0" parent="1">
          <mxGeometry x="700" y="970" width="96.25" height="177.5" as="geometry" />
        </mxCell>
        <mxCell id="BkwM_1ZzVKko48BGfQB7-85" value="สร้างข้อมูลบริษัท&lt;span style=&quot;font-size: medium; text-align: start;&quot;&gt;&lt;/span&gt;" style="rounded=1;whiteSpace=wrap;html=1;" vertex="1" parent="BkwM_1ZzVKko48BGfQB7-84">
          <mxGeometry x="-5" width="106.25" height="42.5" as="geometry" />
        </mxCell>
        <mxCell id="BkwM_1ZzVKko48BGfQB7-86" value="สร้างข้อมูล ActivityLog&lt;span style=&quot;font-size: medium; text-align: start;&quot;&gt;&lt;/span&gt;" style="rounded=1;whiteSpace=wrap;html=1;" vertex="1" parent="BkwM_1ZzVKko48BGfQB7-84">
          <mxGeometry x="6.25" y="67.5" width="77.5" height="40" as="geometry" />
        </mxCell>
        <mxCell id="BkwM_1ZzVKko48BGfQB7-87" value="" style="edgeStyle=orthogonalEdgeStyle;rounded=0;orthogonalLoop=1;jettySize=auto;html=1;entryX=0.543;entryY=-0.009;entryDx=0;entryDy=0;entryPerimeter=0;" edge="1" parent="BkwM_1ZzVKko48BGfQB7-84" source="BkwM_1ZzVKko48BGfQB7-85" target="BkwM_1ZzVKko48BGfQB7-86">
          <mxGeometry relative="1" as="geometry" />
        </mxCell>
        <mxCell id="BkwM_1ZzVKko48BGfQB7-88" value="บันทึกข้อมูล&lt;span style=&quot;font-size: medium; text-align: start;&quot;&gt;&lt;/span&gt;" style="rounded=1;whiteSpace=wrap;html=1;" vertex="1" parent="BkwM_1ZzVKko48BGfQB7-84">
          <mxGeometry x="6.25" y="137.5" width="77.5" height="40" as="geometry" />
        </mxCell>
        <mxCell id="BkwM_1ZzVKko48BGfQB7-89" value="" style="edgeStyle=orthogonalEdgeStyle;rounded=0;orthogonalLoop=1;jettySize=auto;html=1;" edge="1" parent="BkwM_1ZzVKko48BGfQB7-84" source="BkwM_1ZzVKko48BGfQB7-86" target="BkwM_1ZzVKko48BGfQB7-88">
          <mxGeometry relative="1" as="geometry" />
        </mxCell>
        <mxCell id="BkwM_1ZzVKko48BGfQB7-90" style="edgeStyle=orthogonalEdgeStyle;rounded=0;orthogonalLoop=1;jettySize=auto;html=1;" edge="1" parent="1" source="BkwM_1ZzVKko48BGfQB7-88" target="BkwM_1ZzVKko48BGfQB7-106">
          <mxGeometry relative="1" as="geometry" />
        </mxCell>
        <mxCell id="BkwM_1ZzVKko48BGfQB7-91" value="เริ่ม" style="ellipse;whiteSpace=wrap;html=1;" vertex="1" parent="1">
          <mxGeometry x="105" y="110" width="80" height="40" as="geometry" />
        </mxCell>
        <mxCell id="BkwM_1ZzVKko48BGfQB7-92" value="ตรวจสอบสิทธิ์การใช้งาน" style="rounded=1;whiteSpace=wrap;html=1;" vertex="1" parent="1">
          <mxGeometry x="75" y="190" width="140" height="30" as="geometry" />
        </mxCell>
        <mxCell id="BkwM_1ZzVKko48BGfQB7-93" value="" style="edgeStyle=orthogonalEdgeStyle;rounded=0;orthogonalLoop=1;jettySize=auto;html=1;" edge="1" parent="1" source="BkwM_1ZzVKko48BGfQB7-91" target="BkwM_1ZzVKko48BGfQB7-92">
          <mxGeometry relative="1" as="geometry" />
        </mxCell>
        <mxCell id="BkwM_1ZzVKko48BGfQB7-94" value="มี ?" style="rhombus;whiteSpace=wrap;html=1;" vertex="1" parent="1">
          <mxGeometry x="115" y="250" width="60" height="60" as="geometry" />
        </mxCell>
        <mxCell id="BkwM_1ZzVKko48BGfQB7-95" value="" style="edgeStyle=orthogonalEdgeStyle;rounded=0;orthogonalLoop=1;jettySize=auto;html=1;" edge="1" parent="1" source="BkwM_1ZzVKko48BGfQB7-92" target="BkwM_1ZzVKko48BGfQB7-94">
          <mxGeometry relative="1" as="geometry" />
        </mxCell>
        <mxCell id="BkwM_1ZzVKko48BGfQB7-96" value="สิ้นสุด" style="ellipse;whiteSpace=wrap;html=1;" vertex="1" parent="1">
          <mxGeometry x="300" y="800" width="80" height="40" as="geometry" />
        </mxCell>
        <mxCell id="BkwM_1ZzVKko48BGfQB7-97" style="edgeStyle=orthogonalEdgeStyle;rounded=0;orthogonalLoop=1;jettySize=auto;html=1;entryX=0;entryY=0.5;entryDx=0;entryDy=0;" edge="1" parent="1" source="BkwM_1ZzVKko48BGfQB7-94" target="BkwM_1ZzVKko48BGfQB7-96">
          <mxGeometry relative="1" as="geometry">
            <Array as="points">
              <mxPoint x="145" y="820" />
            </Array>
          </mxGeometry>
        </mxCell>
        <mxCell id="BkwM_1ZzVKko48BGfQB7-98" value="ไม่" style="edgeLabel;html=1;align=center;verticalAlign=middle;resizable=0;points=[];" vertex="1" connectable="0" parent="BkwM_1ZzVKko48BGfQB7-97">
          <mxGeometry x="-0.8925" y="1" relative="1" as="geometry">
            <mxPoint as="offset" />
          </mxGeometry>
        </mxCell>
        <mxCell id="BkwM_1ZzVKko48BGfQB7-99" value="ตรวจสอบ Account &lt;br&gt;สถานะการใช้งาน" style="rounded=1;whiteSpace=wrap;html=1;" vertex="1" parent="1">
          <mxGeometry x="350.9999999999999" y="260" width="170" height="40" as="geometry" />
        </mxCell>
        <mxCell id="BkwM_1ZzVKko48BGfQB7-100" value="" style="edgeStyle=orthogonalEdgeStyle;rounded=0;orthogonalLoop=1;jettySize=auto;html=1;" edge="1" parent="1" source="BkwM_1ZzVKko48BGfQB7-94" target="BkwM_1ZzVKko48BGfQB7-99">
          <mxGeometry relative="1" as="geometry">
            <Array as="points">
              <mxPoint x="255" y="280" />
              <mxPoint x="255" y="280" />
            </Array>
          </mxGeometry>
        </mxCell>
        <mxCell id="BkwM_1ZzVKko48BGfQB7-101" value="ใช่" style="edgeLabel;html=1;align=center;verticalAlign=middle;resizable=0;points=[];" vertex="1" connectable="0" parent="BkwM_1ZzVKko48BGfQB7-100">
          <mxGeometry x="-0.7797" y="-1" relative="1" as="geometry">
            <mxPoint as="offset" />
          </mxGeometry>
        </mxCell>
        <mxCell id="BkwM_1ZzVKko48BGfQB7-102" value="" style="edgeStyle=orthogonalEdgeStyle;rounded=0;orthogonalLoop=1;jettySize=auto;html=1;" edge="1" parent="1" source="BkwM_1ZzVKko48BGfQB7-99" target="BkwM_1ZzVKko48BGfQB7-108">
          <mxGeometry relative="1" as="geometry" />
        </mxCell>
        <mxCell id="BkwM_1ZzVKko48BGfQB7-103" style="edgeStyle=orthogonalEdgeStyle;rounded=0;orthogonalLoop=1;jettySize=auto;html=1;entryX=0;entryY=0;entryDx=0;entryDy=0;" edge="1" parent="1" target="BkwM_1ZzVKko48BGfQB7-96">
          <mxGeometry relative="1" as="geometry">
            <Array as="points">
              <mxPoint x="283" y="800" />
              <mxPoint x="312" y="800" />
            </Array>
            <mxPoint x="235" y="790" as="sourcePoint" />
          </mxGeometry>
        </mxCell>
        <mxCell id="BkwM_1ZzVKko48BGfQB7-104" value="" style="ellipse;whiteSpace=wrap;html=1;aspect=fixed;" vertex="1" parent="1">
          <mxGeometry x="212.5" y="770" width="30" height="30" as="geometry" />
        </mxCell>
        <mxCell id="BkwM_1ZzVKko48BGfQB7-105" style="edgeStyle=orthogonalEdgeStyle;rounded=0;orthogonalLoop=1;jettySize=auto;html=1;" edge="1" parent="1" source="BkwM_1ZzVKko48BGfQB7-106" target="BkwM_1ZzVKko48BGfQB7-96">
          <mxGeometry relative="1" as="geometry" />
        </mxCell>
        <mxCell id="BkwM_1ZzVKko48BGfQB7-106" value="" style="ellipse;whiteSpace=wrap;html=1;aspect=fixed;" vertex="1" parent="1">
          <mxGeometry x="421" y="805" width="30" height="30" as="geometry" />
        </mxCell>
        <mxCell id="BkwM_1ZzVKko48BGfQB7-107" style="edgeStyle=orthogonalEdgeStyle;rounded=0;orthogonalLoop=1;jettySize=auto;html=1;entryX=0;entryY=0.5;entryDx=0;entryDy=0;" edge="1" parent="1" source="BkwM_1ZzVKko48BGfQB7-129" target="BkwM_1ZzVKko48BGfQB7-104">
          <mxGeometry relative="1" as="geometry">
            <mxPoint x="181.25" y="433" as="sourcePoint" />
            <Array as="points">
              <mxPoint x="165" y="433" />
              <mxPoint x="165" y="790" />
              <mxPoint x="213" y="790" />
            </Array>
          </mxGeometry>
        </mxCell>
        <mxCell id="BkwM_1ZzVKko48BGfQB7-108" value="มีใน&lt;br&gt;ระบบ &lt;br&gt;?" style="rhombus;whiteSpace=wrap;html=1;" vertex="1" parent="1">
          <mxGeometry x="398.94999999999993" y="338" width="75" height="70" as="geometry" />
        </mxCell>
        <mxCell id="BkwM_1ZzVKko48BGfQB7-109" value="status&lt;br style=&quot;border-color: var(--border-color);&quot;&gt;= 1 ?" style="rhombus;whiteSpace=wrap;html=1;" vertex="1" parent="1">
          <mxGeometry x="406.44999999999993" y="458" width="60" height="60" as="geometry" />
        </mxCell>
        <mxCell id="BkwM_1ZzVKko48BGfQB7-110" value="" style="edgeStyle=orthogonalEdgeStyle;rounded=0;orthogonalLoop=1;jettySize=auto;html=1;" edge="1" parent="1" source="BkwM_1ZzVKko48BGfQB7-108" target="BkwM_1ZzVKko48BGfQB7-109">
          <mxGeometry relative="1" as="geometry" />
        </mxCell>
        <mxCell id="BkwM_1ZzVKko48BGfQB7-111" value="ใช่" style="edgeLabel;html=1;align=center;verticalAlign=middle;resizable=0;points=[];" vertex="1" connectable="0" parent="BkwM_1ZzVKko48BGfQB7-110">
          <mxGeometry x="-0.3254" y="2" relative="1" as="geometry">
            <mxPoint x="-2" as="offset" />
          </mxGeometry>
        </mxCell>
        <mxCell id="BkwM_1ZzVKko48BGfQB7-112" value="Locked&lt;br style=&quot;border-color: var(--border-color);&quot;&gt;= 1 ?&amp;nbsp;" style="rhombus;whiteSpace=wrap;html=1;" vertex="1" parent="1">
          <mxGeometry x="406.44999999999993" y="588" width="60" height="60" as="geometry" />
        </mxCell>
        <mxCell id="BkwM_1ZzVKko48BGfQB7-113" value="" style="edgeStyle=orthogonalEdgeStyle;rounded=0;orthogonalLoop=1;jettySize=auto;html=1;" edge="1" parent="1" source="BkwM_1ZzVKko48BGfQB7-109" target="BkwM_1ZzVKko48BGfQB7-112">
          <mxGeometry relative="1" as="geometry" />
        </mxCell>
        <mxCell id="BkwM_1ZzVKko48BGfQB7-114" value="ไม่" style="edgeLabel;html=1;align=center;verticalAlign=middle;resizable=0;points=[];" vertex="1" connectable="0" parent="BkwM_1ZzVKko48BGfQB7-113">
          <mxGeometry x="-0.3745" relative="1" as="geometry">
            <mxPoint as="offset" />
          </mxGeometry>
        </mxCell>
        <mxCell id="BkwM_1ZzVKko48BGfQB7-115" style="edgeStyle=orthogonalEdgeStyle;rounded=0;orthogonalLoop=1;jettySize=auto;html=1;" edge="1" parent="1" source="BkwM_1ZzVKko48BGfQB7-108" target="BkwM_1ZzVKko48BGfQB7-121">
          <mxGeometry relative="1" as="geometry">
            <mxPoint x="332.6" y="373" as="targetPoint" />
          </mxGeometry>
        </mxCell>
        <mxCell id="BkwM_1ZzVKko48BGfQB7-116" value="ไม่" style="edgeLabel;html=1;align=center;verticalAlign=middle;resizable=0;points=[];" vertex="1" connectable="0" parent="BkwM_1ZzVKko48BGfQB7-115">
          <mxGeometry x="-0.6573" y="2" relative="1" as="geometry">
            <mxPoint as="offset" />
          </mxGeometry>
        </mxCell>
        <mxCell id="BkwM_1ZzVKko48BGfQB7-117" style="edgeStyle=orthogonalEdgeStyle;rounded=0;orthogonalLoop=1;jettySize=auto;html=1;entryX=0.5;entryY=0;entryDx=0;entryDy=0;" edge="1" parent="1" source="BkwM_1ZzVKko48BGfQB7-118" target="BkwM_1ZzVKko48BGfQB7-104">
          <mxGeometry relative="1" as="geometry" />
        </mxCell>
        <mxCell id="BkwM_1ZzVKko48BGfQB7-118" value="rerturn Error Code&amp;nbsp;011&lt;span style=&quot;font-size: medium; text-align: start;&quot;&gt;&lt;/span&gt;" style="rounded=1;whiteSpace=wrap;html=1;" vertex="1" parent="1">
          <mxGeometry x="282.5" y="710" width="77.5" height="40" as="geometry" />
        </mxCell>
        <mxCell id="BkwM_1ZzVKko48BGfQB7-121" value="สร้างข้อมูล ActivityLog&lt;span style=&quot;font-size: medium; text-align: start;&quot;&gt;&lt;/span&gt;" style="rounded=1;whiteSpace=wrap;html=1;" vertex="1" parent="1">
          <mxGeometry x="282.5" y="353" width="77.5" height="40" as="geometry" />
        </mxCell>
        <mxCell id="BkwM_1ZzVKko48BGfQB7-122" style="edgeStyle=orthogonalEdgeStyle;rounded=0;orthogonalLoop=1;jettySize=auto;html=1;entryX=0;entryY=0;entryDx=0;entryDy=0;" edge="1" parent="1" source="BkwM_1ZzVKko48BGfQB7-123" target="BkwM_1ZzVKko48BGfQB7-104">
          <mxGeometry relative="1" as="geometry">
            <Array as="points">
              <mxPoint x="175" y="550" />
              <mxPoint x="175" y="774" />
              <mxPoint x="217" y="774" />
            </Array>
          </mxGeometry>
        </mxCell>
        <mxCell id="BkwM_1ZzVKko48BGfQB7-123" value="rerturn Error Code&amp;nbsp;004&lt;span style=&quot;font-size: medium; text-align: start;&quot;&gt;&lt;/span&gt;" style="rounded=1;whiteSpace=wrap;html=1;" vertex="1" parent="1">
          <mxGeometry x="181.25" y="530" width="77.5" height="40" as="geometry" />
        </mxCell>
        <mxCell id="BkwM_1ZzVKko48BGfQB7-124" value="สร้างข้อมูล ActivityLog&lt;span style=&quot;font-size: medium; text-align: start;&quot;&gt;&lt;/span&gt;" style="rounded=1;whiteSpace=wrap;html=1;" vertex="1" parent="1">
          <mxGeometry x="282.5" y="468" width="77.5" height="40" as="geometry" />
        </mxCell>
        <mxCell id="BkwM_1ZzVKko48BGfQB7-125" value="" style="edgeStyle=orthogonalEdgeStyle;rounded=0;orthogonalLoop=1;jettySize=auto;html=1;" edge="1" parent="1" source="BkwM_1ZzVKko48BGfQB7-109" target="BkwM_1ZzVKko48BGfQB7-124">
          <mxGeometry relative="1" as="geometry" />
        </mxCell>
        <mxCell id="BkwM_1ZzVKko48BGfQB7-126" value="ใช่" style="edgeLabel;html=1;align=center;verticalAlign=middle;resizable=0;points=[];" vertex="1" connectable="0" parent="BkwM_1ZzVKko48BGfQB7-125">
          <mxGeometry x="-0.1729" relative="1" as="geometry">
            <mxPoint as="offset" />
          </mxGeometry>
        </mxCell>
        <mxCell id="BkwM_1ZzVKko48BGfQB7-127" value="บันทึกข้อมูล&lt;span style=&quot;font-size: medium; text-align: start;&quot;&gt;&lt;/span&gt;" style="rounded=1;whiteSpace=wrap;html=1;" vertex="1" parent="1">
          <mxGeometry x="185" y="353" width="77.5" height="40" as="geometry" />
        </mxCell>
        <mxCell id="BkwM_1ZzVKko48BGfQB7-128" value="" style="edgeStyle=orthogonalEdgeStyle;rounded=0;orthogonalLoop=1;jettySize=auto;html=1;" edge="1" parent="1" source="BkwM_1ZzVKko48BGfQB7-121" target="BkwM_1ZzVKko48BGfQB7-127">
          <mxGeometry relative="1" as="geometry" />
        </mxCell>
        <mxCell id="BkwM_1ZzVKko48BGfQB7-129" value="rerturn Error Code&amp;nbsp;001&lt;span style=&quot;font-size: medium; text-align: start;&quot;&gt;&lt;/span&gt;" style="rounded=1;whiteSpace=wrap;html=1;" vertex="1" parent="1">
          <mxGeometry x="185" y="418" width="77.5" height="40" as="geometry" />
        </mxCell>
        <mxCell id="BkwM_1ZzVKko48BGfQB7-130" value="" style="edgeStyle=orthogonalEdgeStyle;rounded=0;orthogonalLoop=1;jettySize=auto;html=1;" edge="1" parent="1" source="BkwM_1ZzVKko48BGfQB7-127" target="BkwM_1ZzVKko48BGfQB7-129">
          <mxGeometry relative="1" as="geometry" />
        </mxCell>
        <mxCell id="BkwM_1ZzVKko48BGfQB7-131" value="" style="edgeStyle=orthogonalEdgeStyle;rounded=0;orthogonalLoop=1;jettySize=auto;html=1;" edge="1" parent="1" source="BkwM_1ZzVKko48BGfQB7-132" target="BkwM_1ZzVKko48BGfQB7-123">
          <mxGeometry relative="1" as="geometry" />
        </mxCell>
        <mxCell id="BkwM_1ZzVKko48BGfQB7-132" value="บันทึกข้อมูล&lt;span style=&quot;font-size: medium; text-align: start;&quot;&gt;&lt;/span&gt;" style="rounded=1;whiteSpace=wrap;html=1;" vertex="1" parent="1">
          <mxGeometry x="282.5" y="530" width="77.5" height="40" as="geometry" />
        </mxCell>
        <mxCell id="BkwM_1ZzVKko48BGfQB7-133" value="" style="edgeStyle=orthogonalEdgeStyle;rounded=0;orthogonalLoop=1;jettySize=auto;html=1;" edge="1" parent="1" source="BkwM_1ZzVKko48BGfQB7-124" target="BkwM_1ZzVKko48BGfQB7-132">
          <mxGeometry relative="1" as="geometry" />
        </mxCell>
        <mxCell id="BkwM_1ZzVKko48BGfQB7-134" value="สร้างข้อมูล ActivityLog&lt;span style=&quot;font-size: medium; text-align: start;&quot;&gt;&lt;/span&gt;" style="rounded=1;whiteSpace=wrap;html=1;" vertex="1" parent="1">
          <mxGeometry x="282.5" y="598" width="77.5" height="40" as="geometry" />
        </mxCell>
        <mxCell id="BkwM_1ZzVKko48BGfQB7-135" value="" style="edgeStyle=orthogonalEdgeStyle;rounded=0;orthogonalLoop=1;jettySize=auto;html=1;" edge="1" parent="1" source="BkwM_1ZzVKko48BGfQB7-112" target="BkwM_1ZzVKko48BGfQB7-134">
          <mxGeometry relative="1" as="geometry" />
        </mxCell>
        <mxCell id="BkwM_1ZzVKko48BGfQB7-136" value="ใช่" style="edgeLabel;html=1;align=center;verticalAlign=middle;resizable=0;points=[];" vertex="1" connectable="0" parent="BkwM_1ZzVKko48BGfQB7-135">
          <mxGeometry x="-0.1659" y="-1" relative="1" as="geometry">
            <mxPoint as="offset" />
          </mxGeometry>
        </mxCell>
        <mxCell id="BkwM_1ZzVKko48BGfQB7-137" value="" style="edgeStyle=orthogonalEdgeStyle;rounded=0;orthogonalLoop=1;jettySize=auto;html=1;" edge="1" parent="1" source="BkwM_1ZzVKko48BGfQB7-138" target="BkwM_1ZzVKko48BGfQB7-118">
          <mxGeometry relative="1" as="geometry" />
        </mxCell>
        <mxCell id="BkwM_1ZzVKko48BGfQB7-138" value="บันทึกข้อมูล&lt;span style=&quot;font-size: medium; text-align: start;&quot;&gt;&lt;/span&gt;" style="rounded=1;whiteSpace=wrap;html=1;" vertex="1" parent="1">
          <mxGeometry x="282.5" y="655" width="77.5" height="40" as="geometry" />
        </mxCell>
        <mxCell id="BkwM_1ZzVKko48BGfQB7-139" value="" style="edgeStyle=orthogonalEdgeStyle;rounded=0;orthogonalLoop=1;jettySize=auto;html=1;" edge="1" parent="1" source="BkwM_1ZzVKko48BGfQB7-134" target="BkwM_1ZzVKko48BGfQB7-138">
          <mxGeometry relative="1" as="geometry" />
        </mxCell>
        <mxCell id="BkwM_1ZzVKko48BGfQB7-140" style="edgeStyle=orthogonalEdgeStyle;rounded=0;orthogonalLoop=1;jettySize=auto;html=1;entryX=0.5;entryY=0;entryDx=0;entryDy=0;" edge="1" parent="1" source="BkwM_1ZzVKko48BGfQB7-144" target="BkwM_1ZzVKko48BGfQB7-149">
          <mxGeometry relative="1" as="geometry">
            <mxPoint x="740" y="750" as="targetPoint" />
          </mxGeometry>
        </mxCell>
        <mxCell id="BkwM_1ZzVKko48BGfQB7-141" value="ใช่" style="edgeLabel;html=1;align=center;verticalAlign=middle;resizable=0;points=[];" vertex="1" connectable="0" parent="BkwM_1ZzVKko48BGfQB7-140">
          <mxGeometry x="-0.1526" y="1" relative="1" as="geometry">
            <mxPoint as="offset" />
          </mxGeometry>
        </mxCell>
        <mxCell id="BkwM_1ZzVKko48BGfQB7-142" style="edgeStyle=orthogonalEdgeStyle;rounded=0;orthogonalLoop=1;jettySize=auto;html=1;entryX=1;entryY=0.5;entryDx=0;entryDy=0;" edge="1" parent="1" source="BkwM_1ZzVKko48BGfQB7-144" target="BkwM_1ZzVKko48BGfQB7-85">
          <mxGeometry relative="1" as="geometry">
            <Array as="points">
              <mxPoint x="816" y="685" />
              <mxPoint x="816" y="991" />
            </Array>
          </mxGeometry>
        </mxCell>
        <mxCell id="BkwM_1ZzVKko48BGfQB7-143" value="ไม่" style="edgeLabel;html=1;align=center;verticalAlign=middle;resizable=0;points=[];" vertex="1" connectable="0" parent="BkwM_1ZzVKko48BGfQB7-142">
          <mxGeometry x="-0.8879" y="1" relative="1" as="geometry">
            <mxPoint as="offset" />
          </mxGeometry>
        </mxCell>
        <mxCell id="BkwM_1ZzVKko48BGfQB7-144" value="Logo ?" style="rhombus;whiteSpace=wrap;html=1;" vertex="1" parent="1">
          <mxGeometry x="710" y="655" width="60" height="60" as="geometry" />
        </mxCell>
        <mxCell id="BkwM_1ZzVKko48BGfQB7-145" value="" style="edgeStyle=orthogonalEdgeStyle;rounded=0;orthogonalLoop=1;jettySize=auto;html=1;" edge="1" parent="1" source="BkwM_1ZzVKko48BGfQB7-149" target="BkwM_1ZzVKko48BGfQB7-154">
          <mxGeometry relative="1" as="geometry" />
        </mxCell>
        <mxCell id="BkwM_1ZzVKko48BGfQB7-146" value="ใช่" style="edgeLabel;html=1;align=center;verticalAlign=middle;resizable=0;points=[];" vertex="1" connectable="0" parent="BkwM_1ZzVKko48BGfQB7-145">
          <mxGeometry x="0.4745" y="1" relative="1" as="geometry">
            <mxPoint as="offset" />
          </mxGeometry>
        </mxCell>
        <mxCell id="BkwM_1ZzVKko48BGfQB7-147" style="edgeStyle=orthogonalEdgeStyle;rounded=0;orthogonalLoop=1;jettySize=auto;html=1;" edge="1" parent="1" source="BkwM_1ZzVKko48BGfQB7-149" target="BkwM_1ZzVKko48BGfQB7-158">
          <mxGeometry relative="1" as="geometry" />
        </mxCell>
        <mxCell id="BkwM_1ZzVKko48BGfQB7-148" value="ไม่" style="edgeLabel;html=1;align=center;verticalAlign=middle;resizable=0;points=[];" vertex="1" connectable="0" parent="BkwM_1ZzVKko48BGfQB7-147">
          <mxGeometry x="0.5378" relative="1" as="geometry">
            <mxPoint as="offset" />
          </mxGeometry>
        </mxCell>
        <mxCell id="BkwM_1ZzVKko48BGfQB7-149" value="ไฟล&lt;br&gt;รูปภาพ ?" style="rhombus;whiteSpace=wrap;html=1;" vertex="1" parent="1">
          <mxGeometry x="672.5" y="752.5" width="65" height="65" as="geometry" />
        </mxCell>
        <mxCell id="BkwM_1ZzVKko48BGfQB7-150" style="edgeStyle=orthogonalEdgeStyle;rounded=0;orthogonalLoop=1;jettySize=auto;html=1;entryX=0.5;entryY=0;entryDx=0;entryDy=0;" edge="1" parent="1" source="BkwM_1ZzVKko48BGfQB7-154" target="BkwM_1ZzVKko48BGfQB7-85">
          <mxGeometry relative="1" as="geometry" />
        </mxCell>
        <mxCell id="BkwM_1ZzVKko48BGfQB7-151" value="ไม่" style="edgeLabel;html=1;align=center;verticalAlign=middle;resizable=0;points=[];" vertex="1" connectable="0" parent="BkwM_1ZzVKko48BGfQB7-150">
          <mxGeometry x="-0.6238" y="2" relative="1" as="geometry">
            <mxPoint as="offset" />
          </mxGeometry>
        </mxCell>
        <mxCell id="BkwM_1ZzVKko48BGfQB7-152" style="edgeStyle=orthogonalEdgeStyle;rounded=0;orthogonalLoop=1;jettySize=auto;html=1;entryX=0.5;entryY=0;entryDx=0;entryDy=0;" edge="1" parent="1" source="BkwM_1ZzVKko48BGfQB7-154" target="BkwM_1ZzVKko48BGfQB7-164">
          <mxGeometry relative="1" as="geometry" />
        </mxCell>
        <mxCell id="BkwM_1ZzVKko48BGfQB7-153" value="ใช่" style="edgeLabel;html=1;align=center;verticalAlign=middle;resizable=0;points=[];" vertex="1" connectable="0" parent="BkwM_1ZzVKko48BGfQB7-152">
          <mxGeometry x="-0.6182" y="-1" relative="1" as="geometry">
            <mxPoint as="offset" />
          </mxGeometry>
        </mxCell>
        <mxCell id="BkwM_1ZzVKko48BGfQB7-154" value="ขนาดไฟล&lt;br&gt;&amp;nbsp;&amp;gt; 50mb ?" style="rhombus;whiteSpace=wrap;html=1;" vertex="1" parent="1">
          <mxGeometry x="665" y="840" width="80" height="70" as="geometry" />
        </mxCell>
        <mxCell id="BkwM_1ZzVKko48BGfQB7-155" style="edgeStyle=orthogonalEdgeStyle;rounded=0;orthogonalLoop=1;jettySize=auto;html=1;entryX=1;entryY=0.5;entryDx=0;entryDy=0;" edge="1" parent="1" source="BkwM_1ZzVKko48BGfQB7-156" target="BkwM_1ZzVKko48BGfQB7-106">
          <mxGeometry relative="1" as="geometry" />
        </mxCell>
        <mxCell id="BkwM_1ZzVKko48BGfQB7-156" value="rerturn Error Code 043&lt;span style=&quot;font-size: medium; text-align: start;&quot;&gt;&lt;/span&gt;" style="rounded=1;whiteSpace=wrap;html=1;" vertex="1" parent="1">
          <mxGeometry x="478.35" y="835" width="77.5" height="40" as="geometry" />
        </mxCell>
        <mxCell id="BkwM_1ZzVKko48BGfQB7-157" value="" style="edgeStyle=orthogonalEdgeStyle;rounded=0;orthogonalLoop=1;jettySize=auto;html=1;" edge="1" parent="1" source="BkwM_1ZzVKko48BGfQB7-158" target="BkwM_1ZzVKko48BGfQB7-160">
          <mxGeometry relative="1" as="geometry" />
        </mxCell>
        <mxCell id="BkwM_1ZzVKko48BGfQB7-158" value="สร้างข้อมูล ActivityLog&lt;span style=&quot;font-size: medium; text-align: start;&quot;&gt;&lt;/span&gt;" style="rounded=1;whiteSpace=wrap;html=1;" vertex="1" parent="1">
          <mxGeometry x="570" y="765" width="77.5" height="40" as="geometry" />
        </mxCell>
        <mxCell id="BkwM_1ZzVKko48BGfQB7-159" value="" style="edgeStyle=orthogonalEdgeStyle;rounded=0;orthogonalLoop=1;jettySize=auto;html=1;entryX=0.5;entryY=0;entryDx=0;entryDy=0;" edge="1" parent="1" source="BkwM_1ZzVKko48BGfQB7-160" target="BkwM_1ZzVKko48BGfQB7-156">
          <mxGeometry relative="1" as="geometry" />
        </mxCell>
        <mxCell id="BkwM_1ZzVKko48BGfQB7-160" value="บันทึกข้อมูล&lt;span style=&quot;font-size: medium; text-align: start;&quot;&gt;&lt;/span&gt;" style="rounded=1;whiteSpace=wrap;html=1;" vertex="1" parent="1">
          <mxGeometry x="478.35" y="765" width="77.5" height="40" as="geometry" />
        </mxCell>
        <mxCell id="BkwM_1ZzVKko48BGfQB7-161" style="edgeStyle=orthogonalEdgeStyle;rounded=0;orthogonalLoop=1;jettySize=auto;html=1;entryX=0.871;entryY=0.926;entryDx=0;entryDy=0;entryPerimeter=0;" edge="1" parent="1" source="BkwM_1ZzVKko48BGfQB7-162" target="BkwM_1ZzVKko48BGfQB7-106">
          <mxGeometry relative="1" as="geometry">
            <mxPoint x="440" y="1000.0000000000002" as="targetPoint" />
          </mxGeometry>
        </mxCell>
        <mxCell id="BkwM_1ZzVKko48BGfQB7-162" value="rerturn Error Code 044&lt;span style=&quot;font-size: medium; text-align: start;&quot;&gt;&lt;/span&gt;" style="rounded=1;whiteSpace=wrap;html=1;" vertex="1" parent="1">
          <mxGeometry x="478.35" y="980" width="77.5" height="40" as="geometry" />
        </mxCell>
        <mxCell id="BkwM_1ZzVKko48BGfQB7-163" style="edgeStyle=orthogonalEdgeStyle;rounded=0;orthogonalLoop=1;jettySize=auto;html=1;entryX=1;entryY=0.5;entryDx=0;entryDy=0;" edge="1" parent="1" source="BkwM_1ZzVKko48BGfQB7-164" target="BkwM_1ZzVKko48BGfQB7-166">
          <mxGeometry relative="1" as="geometry" />
        </mxCell>
        <mxCell id="BkwM_1ZzVKko48BGfQB7-164" value="สร้างข้อมูล ActivityLog&lt;span style=&quot;font-size: medium; text-align: start;&quot;&gt;&lt;/span&gt;" style="rounded=1;whiteSpace=wrap;html=1;" vertex="1" parent="1">
          <mxGeometry x="580" y="910" width="77.5" height="40" as="geometry" />
        </mxCell>
        <mxCell id="BkwM_1ZzVKko48BGfQB7-165" style="edgeStyle=orthogonalEdgeStyle;rounded=0;orthogonalLoop=1;jettySize=auto;html=1;" edge="1" parent="1" source="BkwM_1ZzVKko48BGfQB7-166" target="BkwM_1ZzVKko48BGfQB7-162">
          <mxGeometry relative="1" as="geometry" />
        </mxCell>
        <mxCell id="BkwM_1ZzVKko48BGfQB7-166" value="บันทึกข้อมูล&lt;span style=&quot;font-size: medium; text-align: start;&quot;&gt;&lt;/span&gt;" style="rounded=1;whiteSpace=wrap;html=1;" vertex="1" parent="1">
          <mxGeometry x="478.35" y="910" width="77.5" height="40" as="geometry" />
        </mxCell>
      </root>
    </mxGraphModel>
  </diagram>
</mxfile>
